# Blender v2.66 (sub 0) OBJ File: 'smoothcube_filled.blend'
# www.blender.org
o Cube
v -0.980000 -1.000000 1.000000
v -1.000000 -1.000000 0.980000
v -0.994142 -1.000000 0.994142
v -1.000000 -1.000000 -0.980000
v -0.980000 -1.000000 -1.000000
v -0.994142 -1.000000 -0.994142
v 0.980000 -1.000000 -1.000000
v 1.000000 -1.000000 -0.980000
v 0.994142 -1.000000 -0.994142
v 1.000000 -1.000000 0.980000
v 0.980000 -1.000000 1.000000
v 0.994142 -1.000000 0.994142
v -0.980000 0.980000 1.000000
v -0.980000 1.000000 0.980000
v -1.000000 0.980000 0.980000
v -0.980000 0.994142 0.994142
v -0.994142 0.994142 0.980000
v -0.994142 0.980000 0.994142
v -0.992998 0.992998 0.992998
v -1.000000 0.980000 -0.980000
v -0.980000 1.000000 -0.980000
v -0.980000 0.980000 -1.000000
v -0.994142 0.994142 -0.980000
v -0.980000 0.994142 -0.994142
v -0.994142 0.980000 -0.994142
v -0.992998 0.992998 -0.992998
v 0.980000 0.980000 -1.000000
v 0.980000 1.000000 -0.980000
v 1.000000 0.980000 -0.980000
v 0.980000 0.994142 -0.994142
v 0.994142 0.994142 -0.980000
v 0.994142 0.980000 -0.994142
v 0.992998 0.992998 -0.992998
v 1.000000 0.980000 0.980000
v 0.980000 1.000000 0.980000
v 0.980000 0.980000 1.000000
v 0.994142 0.994142 0.980000
v 0.980000 0.994142 0.994142
v 0.994142 0.980000 0.994142
v 0.992998 0.992998 0.992998
vt 0.339018 0.659342
vt 0.338105 0.335826
vt 0.664825 0.343846
vt 0.669233 0.664931
vt 0.668227 0.337019
vt 0.995472 0.336015
vt 0.337976 0.003372
vt 0.665888 0.002366
vt 0.666894 0.330278
vt 0.672755 0.331283
vt 0.671749 0.003372
vt 0.998994 0.002368
vt 0.335610 0.335927
vt 0.335761 0.333817
vt 0.338982 0.331284
vt 0.338989 0.333650
vt 0.336814 0.333465
vt 0.326720 0.346123
vt 0.326875 0.343630
vt 0.329052 0.343841
vt 0.327633 0.669639
vt 0.330128 0.669538
vt 0.329977 0.671648
vt 0.669260 0.330271
vt 0.669075 0.332446
vt 0.672610 0.333650
vt 0.670432 0.333465
vt 0.669260 0.003379
vt 0.669412 0.001204
vt 0.665880 0.000000
vt 0.668056 0.000185
vt 0.669089 0.667298
vt 0.666910 0.667113
vt 0.665738 0.337027
vt 0.665891 0.334852
vt 0.335610 0.003379
vt 0.335795 0.001204
vt 0.338863 0.661835
vt 0.336686 0.661624
vt 0.666901 0.332644
vt 0.329215 0.346022
vt 1.000000 0.330280
vt 0.999855 0.332646
vt 0.327801 0.671815
vt 0.001081 0.663795
vt 0.000913 0.661618
vt 0.337937 0.333650
vt 0.000155 0.335610
vt 0.668254 0.002359
vt 0.670266 0.331291
vt 0.996478 0.663927
vt 0.996334 0.666294
vt 0.671590 0.001006
vt 0.998835 0.000002
vt 0.337969 0.001006
vt 0.666744 0.664939
vt 0.665738 0.667363
vt 0.665583 0.669855
vt 0.668068 0.334654
vt 0.995313 0.333650
vt 0.336616 0.331291
vt 0.336523 0.659443
vt 0.000000 0.004362
vt 0.000973 0.001993
vt 0.003336 0.001006
vt 0.664657 0.341670
vt 0.000000 0.338102
vt 0.334604 0.003336
vt 0.331248 0.000000
vt 0.333617 0.000973
vt 0.332274 0.334604
vt 0.335610 0.331248
vt 0.334637 0.333617
vt 0.001993 0.334637
vt 0.001006 0.332274
vt 0.004362 0.335610
vn 0.161046 0.161046 0.973693
vn -0.161046 0.161046 0.973693
vn -0.145573 -0.665700 0.731864
vn 0.973693 0.161046 -0.161046
vn 0.973693 0.161046 0.161046
vn 0.731864 -0.665700 0.145573
vn 0.161046 0.973693 0.161046
vn 0.161046 0.973693 -0.161046
vn -0.161046 0.973693 -0.161046
vn -0.161046 0.161046 -0.973693
vn 0.161046 0.161046 -0.973693
vn 0.145573 -0.665700 -0.731864
vn -0.060945 0.705771 0.705771
vn -0.577349 0.577349 0.577349
vn -0.161046 0.973693 0.161046
vn -0.705771 0.705771 0.060945
vn -0.973693 0.161046 0.161046
vn -0.705771 0.060945 0.705771
vn -0.973693 0.161046 -0.161046
vn -0.705771 0.705771 -0.060945
vn -0.577349 0.577349 -0.577349
vn -0.060945 0.705771 -0.705771
vn -0.705771 0.060945 -0.705771
vn 0.060945 0.705771 -0.705771
vn 0.577349 0.577349 -0.577349
vn 0.705771 0.705771 -0.060945
vn 0.705771 0.060945 -0.705771
vn 0.705771 0.705771 0.060945
vn 0.577349 0.577349 0.577349
vn 0.060945 0.705771 0.705771
vn 0.705771 0.060945 0.705771
vn -0.145573 -0.665700 -0.731864
vn -0.548967 -0.630238 -0.548967
vn -0.731864 -0.665700 -0.145573
vn -0.548967 -0.630238 0.548967
vn 0.731864 -0.665700 -0.145573
vn 0.548967 -0.630238 -0.548967
vn 0.145573 -0.665700 0.731864
vn 0.548967 -0.630238 0.548967
vn -0.731864 -0.665700 0.145573
s 1
f 36/1/1 13/2/2 1/3/3
f 29/4/4 34/5/5 10/6/6
f 35/7/7 28/8/8 21/9/9
f 22/10/10 27/11/11 7/12/12
f 13/2/2 16/13/13 19/14/14
f 14/15/15 17/16/16 19/17/14
f 15/18/17 18/19/18 19/20/14
f 20/21/19 23/22/20 26/23/21
f 21/9/9 24/24/22 26/25/21
f 22/10/10 25/26/23 26/27/21
f 27/11/11 30/28/24 33/29/25
f 28/8/8 31/30/26 33/31/25
f 29/4/4 32/32/27 33/33/25
f 34/5/5 37/34/28 40/35/29
f 35/7/7 38/36/30 40/37/29
f 36/1/1 39/38/31 40/39/29
f 14/15/15 21/9/9 23/40/20
f 17/41/16 23/22/20 20/21/19
f 22/10/10 5/42/32 6/43/33
f 25/44/23 6/45/33 4/46/34
f 1/3/3 13/2/2 18/47/18
f 3/48/35 18/19/18 15/18/17
f 21/9/9 28/8/8 30/49/24
f 24/50/22 30/28/24 27/11/11
f 29/4/4 8/51/36 9/52/37
f 32/53/27 9/54/37 7/12/12
f 28/8/8 35/7/7 37/55/28
f 31/56/26 37/34/28 34/5/5
f 36/1/1 11/57/38 12/58/39
f 39/59/31 12/60/39 10/6/6
f 35/7/7 14/15/15 16/61/13
f 38/62/30 16/13/13 13/2/2
f 15/18/17 20/21/19 4/46/34
f 7/63/12 9/64/37 8/65/36
f 11/57/38 36/1/1 1/3/3
f 8/51/36 29/4/4 10/6/6
f 14/15/15 35/7/7 21/9/9
f 5/42/32 22/10/10 7/12/12
f 18/47/18 13/2/2 19/14/14
f 16/61/13 14/15/15 19/17/14
f 17/41/16 15/18/17 19/20/14
f 25/44/23 20/21/19 26/23/21
f 23/40/20 21/9/9 26/25/21
f 24/50/22 22/10/10 26/27/21
f 32/53/27 27/11/11 33/29/25
f 30/49/24 28/8/8 33/31/25
f 31/56/26 29/4/4 33/33/25
f 39/59/31 34/5/5 40/35/29
f 37/55/28 35/7/7 40/37/29
f 38/62/30 36/1/1 40/39/29
f 17/16/16 14/15/15 23/40/20
f 15/18/17 17/41/16 20/21/19
f 25/26/23 22/10/10 6/43/33
f 20/21/19 25/44/23 4/46/34
f 3/66/35 1/3/3 18/47/18
f 2/67/40 3/48/35 15/18/17
f 24/24/22 21/9/9 30/49/24
f 22/10/10 24/50/22 27/11/11
f 32/32/27 29/4/4 9/52/37
f 27/11/11 32/53/27 7/12/12
f 31/30/26 28/8/8 37/55/28
f 29/4/4 31/56/26 34/5/5
f 39/38/31 36/1/1 12/58/39
f 34/5/5 39/59/31 10/6/6
f 38/36/30 35/7/7 16/61/13
f 36/1/1 38/62/30 13/2/2
f 2/67/40 15/18/17 4/46/34
f 11/68/38 10/69/6 12/70/39
f 2/71/40 1/72/3 3/73/35
f 6/74/33 5/75/32 4/76/34
f 5/75/32 7/63/12 4/76/34
f 2/71/40 4/76/34 8/65/36
f 8/65/36 10/69/6 2/71/40
f 10/69/6 11/68/38 1/72/3
f 2/71/40 10/69/6 1/72/3
f 4/76/34 7/63/12 8/65/36
