# Blender v2.66 (sub 0) OBJ File: 'smoothcube.blend'
# www.blender.org
o Cube
v -0.980000 -1.000000 1.000000
v -1.000000 -1.000000 0.980000
v -0.994142 -1.000000 0.994142
v -1.000000 -1.000000 -0.980000
v -0.980000 -1.000000 -1.000000
v -0.994142 -1.000000 -0.994142
v 0.980000 -1.000000 -1.000000
v 1.000000 -1.000000 -0.980000
v 0.994142 -1.000000 -0.994142
v 1.000000 -1.000000 0.980000
v 0.980000 -1.000000 1.000000
v 0.994142 -1.000000 0.994142
v -0.980000 0.980000 1.000000
v -0.980000 1.000000 0.980000
v -1.000000 0.980000 0.980000
v -0.980000 0.994142 0.994142
v -0.994142 0.994142 0.980000
v -0.994142 0.980000 0.994142
v -0.992998 0.992998 0.992998
v -1.000000 0.980000 -0.980000
v -0.980000 1.000000 -0.980000
v -0.980000 0.980000 -1.000000
v -0.994142 0.994142 -0.980000
v -0.980000 0.994142 -0.994142
v -0.994142 0.980000 -0.994142
v -0.992998 0.992998 -0.992998
v 0.980000 0.980000 -1.000000
v 0.980000 1.000000 -0.980000
v 1.000000 0.980000 -0.980000
v 0.980000 0.994142 -0.994142
v 0.994142 0.994142 -0.980000
v 0.994142 0.980000 -0.994142
v 0.992998 0.992998 -0.992998
v 1.000000 0.980000 0.980000
v 0.980000 1.000000 0.980000
v 0.980000 0.980000 1.000000
v 0.994142 0.994142 0.980000
v 0.980000 0.994142 0.994142
v 0.994142 0.980000 0.994142
v 0.992998 0.992998 0.992998
vt 0.338795 0.668183
vt 0.337784 0.338666
vt 0.666630 0.337658
vt 0.003512 0.668185
vt 0.002502 0.338668
vt 0.331348 0.337660
vt 0.002378 0.003388
vt 0.331894 0.002378
vt 0.332905 0.331894
vt 0.671154 0.332902
vt 0.670143 0.003386
vt 1.000000 0.331893
vt 0.335282 0.338674
vt 0.337624 0.336289
vt 0.003388 0.332905
vt 0.003396 0.335282
vt 0.001011 0.332912
vt 0.338795 0.332902
vt 0.338649 0.335280
vt 0.336293 0.332910
vt 0.337784 0.003386
vt 0.335282 0.003394
vt 0.337624 0.001009
vt 0.335282 0.331887
vt 0.332912 0.334272
vt 0.671008 0.335280
vt 0.668652 0.332910
vt 0.667641 0.003394
vt 0.667795 0.001208
vt 0.331887 0.000000
vt 0.334073 0.000186
vt 0.003367 0.670563
vt 0.001178 0.670377
vt 0.000000 0.338676
vt 0.000153 0.336490
vt 0.000000 0.003396
vt 0.000186 0.001210
vt 0.338649 0.670561
vt 0.336460 0.670375
vt 0.666470 0.000000
vt 0.666470 0.335280
vt 0.667496 0.334272
vt 0.667641 0.331894
vt 0.332359 0.667176
vt 0.332213 0.669554
vt 0.669983 0.001009
vt 0.998829 0.000000
vt 0.998989 0.002377
vt 0.002370 0.001011
vt 0.001011 0.668192
vt 0.667641 0.667174
vt 0.667496 0.669552
vt 0.002341 0.336291
vt 0.331188 0.335282
vt 0.336293 0.668191
vt 0.335436 0.336488
vt 0.001210 0.335097
vt 0.336460 0.335095
vt 0.335436 0.001208
vt 0.335097 0.334073
vt 0.668819 0.335095
vt 0.334272 0.002370
vt 0.999855 0.334272
vt 0.666630 0.002377
vn 0.000000 0.000000 1.000000
vn 1.000000 -0.000000 0.000000
vn 0.000000 1.000000 0.000000
vn 0.000000 0.000000 -1.000000
vn -0.357407 0.357407 0.862856
vn -0.357409 0.862855 0.357407
vn -0.862855 0.357409 0.357407
vn -0.862855 0.357407 -0.357409
vn -0.357407 0.862855 -0.357409
vn -0.357408 0.357408 -0.862855
vn 0.114222 0.380181 -0.917832
vn 0.380181 0.917832 -0.114222
vn 0.917832 0.114222 -0.380181
vn 0.917832 0.380181 0.114222
vn 0.114222 0.917832 0.380181
vn 0.380181 0.114222 0.917832
vn -0.382685 0.923879 0.000000
vn -0.923879 0.382685 0.000000
vn -0.382685 0.000000 -0.923879
vn -0.923879 0.000000 -0.382685
vn -0.382685 0.000000 0.923879
vn -0.923879 0.000000 0.382685
vn 0.000000 0.923879 -0.382685
vn 0.000000 0.382685 -0.923879
vn 0.923879 0.000000 -0.382685
vn 0.382685 0.000000 -0.923879
vn 0.382685 0.923879 0.000000
vn 0.923879 0.382685 0.000000
vn 0.382685 -0.000000 0.923879
vn 0.923879 -0.000000 0.382685
vn -0.000000 0.923879 0.382685
vn -0.000000 0.382685 0.923879
vn -1.000000 0.000000 0.000000
vn -0.095602 0.095602 0.990818
vn -0.095602 0.990818 0.095602
vn -0.990818 0.095602 0.095602
vn -0.990818 0.095602 -0.095602
vn -0.095602 0.990818 -0.095602
vn -0.095602 0.095602 -0.990818
vn 0.380181 0.114222 -0.917832
vn 0.114222 0.917832 -0.380181
vn 0.917832 0.380181 -0.114222
vn 0.917832 0.114222 0.380181
vn 0.380181 0.917832 0.114222
vn 0.114222 0.380181 0.917832
s off
f 36/1/1 13/2/1 1/3/1
f 29/4/2 34/5/2 10/6/2
f 35/7/3 28/8/3 21/9/3
f 22/10/4 27/11/4 5/12/4
f 13/2/5 16/13/5 18/14/5
f 14/15/6 17/16/6 16/17/6
f 15/18/7 18/19/7 17/20/7
f 20/21/8 23/22/8 25/23/8
f 21/9/9 24/24/9 23/25/9
f 22/10/10 25/26/10 24/27/10
f 27/11/11 30/28/11 33/29/11
f 28/8/12 31/30/12 33/31/12
f 29/4/13 32/32/13 33/33/13
f 34/5/14 37/34/14 40/35/14
f 35/7/15 38/36/15 40/37/15
f 36/1/16 39/38/16 40/39/16
f 14/15/17 21/9/17 17/16/17
f 17/20/18 23/22/18 15/18/18
f 22/10/19 5/12/19 25/26/19
f 25/23/20 6/40/20 20/21/20
f 1/3/21 13/2/21 3/41/21
f 3/42/22 18/19/22 2/43/22
f 21/9/23 28/8/23 24/24/23
f 24/27/24 30/28/24 22/10/24
f 29/4/25 8/44/25 9/45/25
f 32/46/26 9/47/26 7/48/26
f 28/8/27 35/7/27 37/49/27
f 31/50/28 37/34/28 34/5/28
f 36/1/29 11/51/29 12/52/29
f 39/53/30 12/54/30 10/6/30
f 35/7/31 14/15/31 16/17/31
f 38/55/32 16/13/32 13/2/32
f 15/18/33 20/21/33 2/43/33
f 11/51/1 36/1/1 1/3/1
f 8/44/2 29/4/2 10/6/2
f 14/15/3 35/7/3 21/9/3
f 27/11/4 7/48/4 5/12/4
f 16/13/34 19/56/34 18/14/34
f 17/16/35 19/57/35 16/17/35
f 18/19/36 19/58/36 17/20/36
f 23/22/37 26/59/37 25/23/37
f 24/24/38 26/60/38 23/25/38
f 25/26/39 26/61/39 24/27/39
f 32/46/40 27/11/40 33/29/40
f 30/62/41 28/8/41 33/31/41
f 31/50/42 29/4/42 33/33/42
f 39/53/43 34/5/43 40/35/43
f 37/49/44 35/7/44 40/37/44
f 38/55/45 36/1/45 40/39/45
f 21/9/17 23/25/17 17/16/17
f 23/22/18 20/21/18 15/18/18
f 5/12/19 6/63/19 25/26/19
f 6/40/20 4/64/20 20/21/20
f 13/2/21 18/14/21 3/41/21
f 18/19/22 15/18/22 2/43/22
f 28/8/23 30/62/23 24/24/23
f 30/28/24 27/11/24 22/10/24
f 32/32/25 29/4/25 9/45/25
f 27/11/26 32/46/26 7/48/26
f 31/30/27 28/8/27 37/49/27
f 29/4/28 31/50/28 34/5/28
f 39/38/29 36/1/29 12/52/29
f 34/5/30 39/53/30 10/6/30
f 38/36/31 35/7/31 16/17/31
f 36/1/32 38/55/32 13/2/32
f 20/21/33 4/64/33 2/43/33
