# Blender v2.66 (sub 0) OBJ File: 'smoothcube.blend'
# www.blender.org
o Cube
v -0.980000 -1.000000 1.000000
v -1.000000 -1.000000 0.980000
v -0.994142 -1.000000 0.994142
v -1.000000 -1.000000 -0.980000
v -0.980000 -1.000000 -1.000000
v -0.994142 -1.000000 -0.994142
v 0.980000 -1.000000 -1.000000
v 1.000000 -1.000000 -0.980000
v 0.994142 -1.000000 -0.994142
v 1.000000 -1.000000 0.980000
v 0.980000 -1.000000 1.000000
v 0.994142 -1.000000 0.994142
v -0.980000 0.980000 1.000000
v -0.980000 1.000000 0.980000
v -1.000000 0.980000 0.980000
v -0.980000 0.994142 0.994142
v -0.994142 0.994142 0.980000
v -0.994142 0.980000 0.994142
v -0.992998 0.992998 0.992998
v -1.000000 0.980000 -0.980000
v -0.980000 1.000000 -0.980000
v -0.980000 0.980000 -1.000000
v -0.994142 0.994142 -0.980000
v -0.980000 0.994142 -0.994142
v -0.994142 0.980000 -0.994142
v -0.992998 0.992998 -0.992998
v 0.980000 0.980000 -1.000000
v 0.980000 1.000000 -0.980000
v 1.000000 0.980000 -0.980000
v 0.980000 0.994142 -0.994142
v 0.994142 0.994142 -0.980000
v 0.994142 0.980000 -0.994142
v 0.992998 0.992998 -0.992998
v 1.000000 0.980000 0.980000
v 0.980000 1.000000 0.980000
v 0.980000 0.980000 1.000000
v 0.994142 0.994142 0.980000
v 0.980000 0.994142 0.994142
v 0.994142 0.980000 0.994142
v 0.992998 0.992998 0.992998
vt 0.338795 0.668183
vt 0.337784 0.338666
vt 0.666630 0.337658
vt 0.003512 0.668185
vt 0.002502 0.338668
vt 0.331348 0.337660
vt 0.002378 0.003388
vt 0.331894 0.002378
vt 0.332905 0.331894
vt 0.671154 0.332902
vt 0.670143 0.003386
vt 1.000000 0.331893
vt 0.335282 0.338674
vt 0.337624 0.336289
vt 0.003388 0.332905
vt 0.003396 0.335282
vt 0.001011 0.332912
vt 0.338795 0.332902
vt 0.338649 0.335280
vt 0.336293 0.332910
vt 0.337784 0.003386
vt 0.335282 0.003394
vt 0.337624 0.001009
vt 0.335282 0.331887
vt 0.332912 0.334272
vt 0.671008 0.335280
vt 0.668652 0.332910
vt 0.667641 0.003394
vt 0.667795 0.001208
vt 0.331887 0.000000
vt 0.334073 0.000186
vt 0.003367 0.670563
vt 0.001178 0.670377
vt 0.000000 0.338676
vt 0.000153 0.336490
vt 0.000000 0.003396
vt 0.000186 0.001210
vt 0.338649 0.670561
vt 0.336460 0.670375
vt 0.666470 0.000000
vt 0.666470 0.335280
vt 0.667496 0.334272
vt 0.667641 0.331894
vt 0.332359 0.667176
vt 0.332213 0.669554
vt 0.669983 0.001009
vt 0.998829 0.000000
vt 0.998989 0.002377
vt 0.002370 0.001011
vt 0.001011 0.668192
vt 0.667641 0.667174
vt 0.667496 0.669552
vt 0.002341 0.336291
vt 0.331188 0.335282
vt 0.336293 0.668191
vt 0.335436 0.336488
vt 0.001210 0.335097
vt 0.336460 0.335095
vt 0.335436 0.001208
vt 0.335097 0.334073
vt 0.668819 0.335095
vt 0.334272 0.002370
vt 0.999855 0.334272
vt 0.666630 0.002377
vn 0.161046 0.161046 0.973693
vn -0.187689 0.187689 0.964110
vn -0.195074 0.000000 0.980773
vn 0.973693 0.161046 -0.161046
vn 0.973693 0.161046 0.161046
vn 0.980773 0.000000 0.195074
vn 0.161046 0.973693 0.161046
vn 0.161046 0.973693 -0.161046
vn -0.187689 0.964110 -0.187689
vn -0.187689 0.187689 -0.964110
vn 0.161046 0.161046 -0.973693
vn -0.195074 0.000000 -0.980773
vn -0.135655 0.700552 0.700552
vn -0.700552 0.135655 0.700552
vn -0.187689 0.964110 0.187689
vn -0.700552 0.700552 0.135655
vn -0.964110 0.187689 0.187689
vn -0.964110 0.187689 -0.187689
vn -0.700552 0.700552 -0.135655
vn -0.700552 0.135655 -0.700552
vn -0.135655 0.700552 -0.700552
vn 0.060945 0.705771 -0.705771
vn 0.577349 0.577349 -0.577349
vn 0.705771 0.705771 -0.060945
vn 0.705771 0.060945 -0.705771
vn 0.705771 0.705771 0.060945
vn 0.577349 0.577349 0.577349
vn 0.060945 0.705771 0.705771
vn 0.705771 0.060945 0.705771
vn -0.707083 0.000000 -0.707083
vn -0.707083 0.000000 0.707083
vn -0.980773 0.000000 0.195074
vn 0.980773 0.000000 -0.195074
vn 0.707083 0.000000 -0.707083
vn 0.195074 0.000000 -0.980773
vn 0.195074 0.000000 0.980773
vn 0.707083 0.000000 0.707083
vn -0.577349 0.577349 0.577349
vn -0.577349 0.577349 -0.577349
vn -0.980773 0.000000 -0.195074
s 1
f 36/1/1 13/2/2 1/3/3
f 29/4/4 34/5/5 10/6/6
f 35/7/7 28/8/8 21/9/9
f 22/10/10 27/11/11 5/12/12
f 13/2/2 16/13/13 18/14/14
f 14/15/15 17/16/16 16/17/13
f 15/18/17 18/19/14 17/20/16
f 20/21/18 23/22/19 25/23/20
f 21/9/9 24/24/21 23/25/19
f 22/10/10 25/26/20 24/27/21
f 27/11/11 30/28/22 33/29/23
f 28/8/8 31/30/24 33/31/23
f 29/4/4 32/32/25 33/33/23
f 34/5/5 37/34/26 40/35/27
f 35/7/7 38/36/28 40/37/27
f 36/1/1 39/38/29 40/39/27
f 14/15/15 21/9/9 17/16/16
f 17/20/16 23/22/19 15/18/17
f 22/10/10 5/12/12 25/26/20
f 25/23/20 6/40/30 20/21/18
f 1/3/3 13/2/2 3/41/31
f 3/42/31 18/19/14 2/43/32
f 21/9/9 28/8/8 24/24/21
f 24/27/21 30/28/22 22/10/10
f 29/4/4 8/44/33 9/45/34
f 32/46/25 9/47/34 7/48/35
f 28/8/8 35/7/7 37/49/26
f 31/50/24 37/34/26 34/5/5
f 36/1/1 11/51/36 12/52/37
f 39/53/29 12/54/37 10/6/6
f 35/7/7 14/15/15 16/17/13
f 38/55/28 16/13/13 13/2/2
f 15/18/17 20/21/18 2/43/32
f 11/51/36 36/1/1 1/3/3
f 8/44/33 29/4/4 10/6/6
f 14/15/15 35/7/7 21/9/9
f 27/11/11 7/48/35 5/12/12
f 16/13/13 19/56/38 18/14/14
f 17/16/16 19/57/38 16/17/13
f 18/19/14 19/58/38 17/20/16
f 23/22/19 26/59/39 25/23/20
f 24/24/21 26/60/39 23/25/19
f 25/26/20 26/61/39 24/27/21
f 32/46/25 27/11/11 33/29/23
f 30/62/22 28/8/8 33/31/23
f 31/50/24 29/4/4 33/33/23
f 39/53/29 34/5/5 40/35/27
f 37/49/26 35/7/7 40/37/27
f 38/55/28 36/1/1 40/39/27
f 21/9/9 23/25/19 17/16/16
f 23/22/19 20/21/18 15/18/17
f 5/12/12 6/63/30 25/26/20
f 6/40/30 4/64/40 20/21/18
f 13/2/2 18/14/14 3/41/31
f 18/19/14 15/18/17 2/43/32
f 28/8/8 30/62/22 24/24/21
f 30/28/22 27/11/11 22/10/10
f 32/32/25 29/4/4 9/45/34
f 27/11/11 32/46/25 7/48/35
f 31/30/24 28/8/8 37/49/26
f 29/4/4 31/50/24 34/5/5
f 39/38/29 36/1/1 12/52/37
f 34/5/5 39/53/29 10/6/6
f 38/36/28 35/7/7 16/17/13
f 36/1/1 38/55/28 13/2/2
f 20/21/18 4/64/40 2/43/32
