# Blender v2.66 (sub 0) OBJ File: 'cone_filled.blend'
# www.blender.org
o Cone_Cone.001
v 0.000000 -1.000000 -1.000000
v 0.309017 -1.000000 -0.951057
v 0.587785 -1.000000 -0.809017
v 0.809017 -1.000000 -0.587785
v 0.951057 -1.000000 -0.309017
v 1.000000 -1.000000 0.000000
v 0.951056 -1.000000 0.309017
v 0.809017 -1.000000 0.587785
v 0.000000 1.000000 0.000000
v 0.587785 -1.000000 0.809017
v 0.309017 -1.000000 0.951057
v -0.000000 -1.000000 1.000000
v -0.309017 -1.000000 0.951056
v -0.587786 -1.000000 0.809017
v -0.809017 -1.000000 0.587785
v -0.951057 -1.000000 0.309016
v -1.000000 -1.000000 -0.000001
v -0.951056 -1.000000 -0.309018
v -0.809016 -1.000000 -0.587786
v -0.587784 -1.000000 -0.809018
v -0.309016 -1.000000 -0.951057
vt 0.636534 0.537407
vt 0.609784 0.926283
vt 0.571680 0.562142
vt 0.911640 0.504376
vt 0.571680 0.368442
vt 0.953118 0.448721
vt 0.853526 0.537297
vt 0.973901 0.375780
vt 0.712378 0.537297
vt 0.791787 0.561822
vt 0.866987 0.608581
vt 0.930618 0.672998
vt 0.976451 0.748767
vt 1.000000 0.828470
vt 0.998959 0.904307
vt 0.973430 0.968853
vt 0.629860 0.006965
vt 0.571746 0.039886
vt 0.698921 0.000000
vt 0.772169 0.019673
vt 0.842434 0.064059
vt 0.902837 0.128812
vt 0.947467 0.207594
vt 0.971954 0.292693
vt 0.154453 0.543699
vt 0.081201 0.490478
vt 0.240567 0.571679
vt 0.027980 0.417226
vt 0.000000 0.331112
vt 0.000000 0.240567
vt 0.027980 0.154454
vt 0.081201 0.081201
vt 0.154454 0.027980
vt 0.240567 0.000000
vt 0.331112 0.000000
vt 0.417226 0.027980
vt 0.490479 0.081201
vt 0.543700 0.154454
vt 0.571680 0.240567
vt 0.571680 0.331113
vt 0.543699 0.417226
vt 0.490478 0.490479
vt 0.417226 0.543700
vt 0.331112 0.571680
vn -0.512009 -0.491043 -0.704733
vn 0.000000 1.000000 0.000000
vn -0.269173 -0.491043 -0.828486
vn 0.000000 -0.491043 -0.871120
vn 0.269173 -0.491043 -0.828486
vn 0.512009 -0.491043 -0.704733
vn -0.704733 -0.491043 -0.512040
vn -0.828486 -0.491043 -0.269173
vn -0.871120 -0.491043 0.000000
vn -0.828486 -0.491043 0.269173
vn -0.704733 -0.491043 0.512009
vn -0.512009 -0.491043 0.704733
vn -0.269173 -0.491043 0.828486
vn 0.000000 -0.491043 0.871120
vn 0.269173 -0.491043 0.828486
vn 0.512009 -0.491043 0.704733
vn 0.704733 -0.491043 0.512009
vn 0.828486 -0.491043 0.269173
vn 0.871120 -0.491043 0.000000
vn 0.828486 -0.491043 -0.269173
vn 0.704733 -0.491043 -0.512009
s 1
f 20/1/1 9/2/2 21/3/3
f 1/4/4 9/5/2 2/6/5
f 21/7/3 9/5/2 1/4/4
f 2/6/5 9/5/2 3/8/6
f 19/9/7 9/2/2 20/1/1
f 18/10/8 9/2/2 19/9/7
f 17/11/9 9/2/2 18/10/8
f 16/12/10 9/2/2 17/11/9
f 15/13/11 9/2/2 16/12/10
f 14/14/12 9/2/2 15/13/11
f 13/15/13 9/2/2 14/14/12
f 12/16/14 9/2/2 13/15/13
f 11/17/15 9/5/2 12/18/14
f 10/19/16 9/5/2 11/17/15
f 8/20/17 9/5/2 10/19/16
f 7/21/18 9/5/2 8/20/17
f 6/22/19 9/5/2 7/21/18
f 5/23/20 9/5/2 6/22/19
f 4/24/21 9/5/2 5/23/20
f 3/8/6 9/5/2 4/24/21
f 21/25/3 1/26/4 20/27/1
f 1/26/4 2/28/5 20/27/1
f 2/28/5 3/29/6 20/27/1
f 3/29/6 4/30/21 20/27/1
f 4/30/21 5/31/20 20/27/1
f 5/31/20 6/32/19 20/27/1
f 6/32/19 7/33/18 20/27/1
f 7/33/18 8/34/17 20/27/1
f 8/34/17 10/35/16 20/27/1
f 10/35/16 11/36/15 20/27/1
f 11/36/15 12/37/14 20/27/1
f 12/37/14 13/38/13 20/27/1
f 13/38/13 14/39/12 20/27/1
f 14/39/12 15/40/11 20/27/1
f 15/40/11 16/41/10 20/27/1
f 16/41/10 17/42/9 20/27/1
f 17/42/9 18/43/8 19/44/7
f 20/27/1 17/42/9 19/44/7
