# Blender v2.66 (sub 0) OBJ File: 'cone_filled.blend'
# www.blender.org
o Cone_Cone.001
v 0.000000 -1.000000 -1.000000
v 0.309017 -1.000000 -0.951057
v 0.587785 -1.000000 -0.809017
v 0.809017 -1.000000 -0.587785
v 0.951057 -1.000000 -0.309017
v 1.000000 -1.000000 0.000000
v 0.951056 -1.000000 0.309017
v 0.809017 -1.000000 0.587785
v 0.000000 1.000000 0.000000
v 0.587785 -1.000000 0.809017
v 0.309017 -1.000000 0.951057
v -0.000000 -1.000000 1.000000
v -0.309017 -1.000000 0.951056
v -0.587786 -1.000000 0.809017
v -0.809017 -1.000000 0.587785
v -0.951057 -1.000000 0.309016
v -1.000000 -1.000000 -0.000001
v -0.951056 -1.000000 -0.309018
v -0.809016 -1.000000 -0.587786
v -0.587784 -1.000000 -0.809018
v -0.309016 -1.000000 -0.951057
vt 0.636534 0.537407
vt 0.609784 0.926283
vt 0.571680 0.562142
vt 0.911640 0.504376
vt 0.571680 0.368442
vt 0.953118 0.448721
vt 0.853526 0.537297
vt 0.973901 0.375780
vt 0.712378 0.537297
vt 0.791787 0.561822
vt 0.866987 0.608581
vt 0.930618 0.672998
vt 0.976451 0.748767
vt 1.000000 0.828470
vt 0.998959 0.904307
vt 0.973430 0.968853
vt 0.629860 0.006965
vt 0.571746 0.039886
vt 0.698921 0.000000
vt 0.772169 0.019673
vt 0.842434 0.064059
vt 0.902837 0.128812
vt 0.947467 0.207594
vt 0.971954 0.292693
vt 0.154453 0.543699
vt 0.081201 0.490478
vt 0.240567 0.571679
vt 0.027980 0.417226
vt 0.000000 0.331112
vt 0.000000 0.240567
vt 0.027980 0.154454
vt 0.081201 0.081201
vt 0.154454 0.027980
vt 0.240567 0.000000
vt 0.331112 0.000000
vt 0.417226 0.027980
vt 0.490479 0.081201
vt 0.543700 0.154454
vt 0.571680 0.240567
vt 0.571680 0.331113
vt 0.543699 0.417226
vt 0.490478 0.490479
vt 0.417226 0.543700
vt 0.331112 0.571680
vn -0.407058 0.442793 -0.798898
vn 0.140263 0.442793 -0.885585
vn -0.140262 0.442793 -0.885585
vn 0.407059 0.442793 -0.798898
vn -0.634008 0.442793 -0.634010
vn -0.798897 0.442793 -0.407060
vn -0.885585 0.442793 -0.140264
vn -0.885585 0.442793 0.140262
vn -0.798898 0.442793 0.407058
vn -0.634009 0.442793 0.634009
vn -0.407059 0.442793 0.798898
vn -0.140263 0.442793 0.885585
vn 0.140263 0.442793 0.885585
vn 0.407059 0.442793 0.798898
vn 0.634009 0.442793 0.634009
vn 0.798898 0.442793 0.407059
vn 0.885585 0.442793 0.140263
vn 0.885585 0.442793 -0.140263
vn 0.798898 0.442793 -0.407059
vn 0.634009 0.442793 -0.634009
vn -0.000000 -1.000000 -0.000000
s off
f 20/1/1 9/2/1 21/3/1
f 1/4/2 9/5/2 2/6/2
f 21/7/3 9/5/3 1/4/3
f 2/6/4 9/5/4 3/8/4
f 19/9/5 9/2/5 20/1/5
f 18/10/6 9/2/6 19/9/6
f 17/11/7 9/2/7 18/10/7
f 16/12/8 9/2/8 17/11/8
f 15/13/9 9/2/9 16/12/9
f 14/14/10 9/2/10 15/13/10
f 13/15/11 9/2/11 14/14/11
f 12/16/12 9/2/12 13/15/12
f 11/17/13 9/5/13 12/18/13
f 10/19/14 9/5/14 11/17/14
f 8/20/15 9/5/15 10/19/15
f 7/21/16 9/5/16 8/20/16
f 6/22/17 9/5/17 7/21/17
f 5/23/18 9/5/18 6/22/18
f 4/24/19 9/5/19 5/23/19
f 3/8/20 9/5/20 4/24/20
f 21/25/21 1/26/21 20/27/21
f 1/26/21 2/28/21 20/27/21
f 2/28/21 3/29/21 20/27/21
f 3/29/21 4/30/21 20/27/21
f 4/30/21 5/31/21 20/27/21
f 5/31/21 6/32/21 20/27/21
f 6/32/21 7/33/21 20/27/21
f 7/33/21 8/34/21 20/27/21
f 8/34/21 10/35/21 20/27/21
f 10/35/21 11/36/21 20/27/21
f 11/36/21 12/37/21 20/27/21
f 12/37/21 13/38/21 20/27/21
f 13/38/21 14/39/21 20/27/21
f 14/39/21 15/40/21 20/27/21
f 15/40/21 16/41/21 20/27/21
f 16/41/21 17/42/21 20/27/21
f 17/42/21 18/43/21 19/44/21
f 20/27/21 17/42/21 19/44/21
