# Blender v2.66 (sub 0) OBJ File: 'cube.blend'
# www.blender.org
o Cube
v -1.000000 -1.000000 1.000000
v -1.000000 -1.000000 -1.000000
v 1.000000 -1.000000 -1.000000
v 1.000000 -1.000000 1.000000
v -1.000000 1.000000 1.000000
v -1.000000 1.000000 -1.000000
v 1.000000 1.000000 -1.000000
v 1.000000 1.000000 1.000000
vt 0.998999 0.334334
vt 0.667668 0.334334
vt 0.998999 0.665666
vt 0.332332 0.001001
vt 0.001001 0.001001
vt 0.332332 0.332332
vt 0.332332 0.334334
vt 0.001001 0.334334
vt 0.001001 0.665666
vt 0.665666 0.001001
vt 0.334334 0.001001
vt 0.334334 0.332332
vt 0.665666 0.334334
vt 0.334334 0.334334
vt 0.334334 0.665666
vt 0.667668 0.665666
vt 0.001001 0.332332
vt 0.332332 0.665666
vt 0.665666 0.332332
vt 0.665666 0.665666
vn -0.577349 0.577349 0.577349
vn -0.577349 0.577349 -0.577349
vn -0.707083 0.000000 0.707083
vn 0.577349 0.577349 -0.577349
vn -0.707083 0.000000 -0.707083
vn 0.577349 0.577349 0.577349
vn 0.707083 0.000000 0.707083
vn 0.707083 0.000000 -0.707083
s 1
f 5/1/1 6/2/2 1/3/3
f 6/4/2 7/5/4 2/6/5
f 7/7/4 8/8/6 4/9/7
f 8/10/6 5/11/1 1/12/3
f 8/13/6 7/14/4 6/15/2
f 6/2/2 2/16/5 1/3/3
f 7/5/4 3/17/8 2/6/5
f 3/18/8 7/7/4 4/9/7
f 4/19/7 8/10/6 1/12/3
f 5/20/1 8/13/6 6/15/2
