# Blender v2.66 (sub 0) OBJ File: 'cube.blend'
# www.blender.org
o Cube
v -1.000000 -1.000000 1.000000
v -1.000000 -1.000000 -1.000000
v 1.000000 -1.000000 -1.000000
v 1.000000 -1.000000 1.000000
v -1.000000 1.000000 1.000000
v -1.000000 1.000000 -1.000000
v 1.000000 1.000000 -1.000000
v 1.000000 1.000000 1.000000
vt 0.998999 0.334334
vt 0.667668 0.334334
vt 0.998999 0.665666
vt 0.332332 0.001001
vt 0.001001 0.001001
vt 0.332332 0.332332
vt 0.332332 0.334334
vt 0.001001 0.334334
vt 0.001001 0.665666
vt 0.665666 0.001001
vt 0.334334 0.001001
vt 0.334334 0.332332
vt 0.665666 0.334334
vt 0.334334 0.334334
vt 0.334334 0.665666
vt 0.667668 0.665666
vt 0.001001 0.332332
vt 0.332332 0.665666
vt 0.665666 0.332332
vt 0.665666 0.665666
vn -1.000000 0.000000 0.000000
vn 0.000000 0.000000 -1.000000
vn 1.000000 -0.000000 0.000000
vn 0.000000 0.000000 1.000000
vn 0.000000 1.000000 0.000000
s off
f 5/1/1 6/2/1 1/3/1
f 6/4/2 7/5/2 2/6/2
f 7/7/3 8/8/3 4/9/3
f 8/10/4 5/11/4 1/12/4
f 8/13/5 7/14/5 6/15/5
f 6/2/1 2/16/1 1/3/1
f 7/5/2 3/17/2 2/6/2
f 3/18/3 7/7/3 4/9/3
f 4/19/4 8/10/4 1/12/4
f 5/20/5 8/13/5 6/15/5
