# Blender v2.66 (sub 0) OBJ File: 'cylinder.blend'
# www.blender.org
o Cylinder
v 0.000000 -1.000000 -1.000000
v 0.000000 1.000000 -1.000000
v 0.195090 -1.000000 -0.980785
v 0.195090 1.000000 -0.980785
v 0.382683 -1.000000 -0.923880
v 0.382683 1.000000 -0.923880
v 0.555570 -1.000000 -0.831470
v 0.555570 1.000000 -0.831470
v 0.707107 -1.000000 -0.707107
v 0.707107 1.000000 -0.707107
v 0.831470 -1.000000 -0.555570
v 0.831470 1.000000 -0.555570
v 0.923880 -1.000000 -0.382683
v 0.923880 1.000000 -0.382683
v 0.980785 -1.000000 -0.195090
v 0.980785 1.000000 -0.195090
v 1.000000 -1.000000 -0.000000
v 1.000000 1.000000 -0.000000
v 0.980785 -1.000000 0.195090
v 0.980785 1.000000 0.195090
v 0.923880 -1.000000 0.382683
v 0.923880 1.000000 0.382683
v 0.831470 -1.000000 0.555570
v 0.831470 1.000000 0.555570
v 0.707107 -1.000000 0.707107
v 0.707107 1.000000 0.707107
v 0.555570 -1.000000 0.831470
v 0.555570 1.000000 0.831470
v 0.382683 -1.000000 0.923880
v 0.382683 1.000000 0.923880
v 0.195090 -1.000000 0.980785
v 0.195090 1.000000 0.980785
v -0.000000 -1.000000 1.000000
v -0.000000 1.000000 1.000000
v -0.195091 -1.000000 0.980785
v -0.195091 1.000000 0.980785
v -0.382684 -1.000000 0.923879
v -0.382684 1.000000 0.923879
v -0.555571 -1.000000 0.831469
v -0.555571 1.000000 0.831469
v -0.707107 -1.000000 0.707106
v -0.707107 1.000000 0.707106
v -0.831470 -1.000000 0.555570
v -0.831470 1.000000 0.555570
v -0.923880 -1.000000 0.382683
v -0.923880 1.000000 0.382683
v -0.980785 -1.000000 0.195089
v -0.980785 1.000000 0.195089
v -1.000000 -1.000000 -0.000001
v -1.000000 1.000000 -0.000001
v -0.980785 -1.000000 -0.195091
v -0.980785 1.000000 -0.195091
v -0.923879 -1.000000 -0.382684
v -0.923879 1.000000 -0.382684
v -0.831469 -1.000000 -0.555571
v -0.831469 1.000000 -0.555571
v -0.707106 -1.000000 -0.707108
v -0.707106 1.000000 -0.707108
v -0.555569 -1.000000 -0.831470
v -0.555569 1.000000 -0.831470
v -0.382682 -1.000000 -0.923880
v -0.382682 1.000000 -0.923880
v -0.195089 -1.000000 -0.980786
v -0.195089 1.000000 -0.980786
vt 0.289718 0.879351
vt 0.288367 0.438844
vt 0.330714 0.438714
vt 0.332066 0.879221
vt 0.370605 0.438592
vt 0.371956 0.879099
vt 0.406505 0.438482
vt 0.407857 0.878988
vt 0.437036 0.438388
vt 0.778904 0.000000
vt 0.780256 0.440507
vt 0.749725 0.440601
vt 0.748373 0.000094
vt 0.713824 0.440711
vt 0.712473 0.000204
vt 0.673934 0.440833
vt 0.672582 0.000326
vt 0.631586 0.440963
vt 0.630235 0.000456
vt 0.588409 0.441095
vt 0.587057 0.000588
vt 0.546061 0.441225
vt 0.544710 0.000718
vt 0.506171 0.441348
vt 0.504819 0.000841
vt 0.470270 0.441458
vt 0.468919 0.000951
vt 0.439739 0.441552
vt 0.720545 0.882916
vt 0.719194 0.442409
vt 0.755094 0.442299
vt 0.756446 0.882806
vt 0.794985 0.442176
vt 0.796336 0.882683
vt 0.837333 0.442046
vt 0.838684 0.882553
vt 0.881861 0.882421
vt 0.880510 0.441914
vt 0.924209 0.882291
vt 0.922857 0.441784
vt 0.964099 0.882168
vt 0.962748 0.441662
vt 1.000000 0.882058
vt 0.717842 0.441552
vt 0.719194 0.882058
vt 0.681942 0.441662
vt 0.683293 0.882169
vt 0.642051 0.441784
vt 0.643403 0.882291
vt 0.599704 0.441914
vt 0.601055 0.882421
vt 0.556526 0.442046
vt 0.557878 0.882553
vt 0.514179 0.442176
vt 0.515530 0.882683
vt 0.474288 0.442299
vt 0.475640 0.882806
vt 0.438388 0.442409
vt 0.097872 0.879939
vt 0.096520 0.439433
vt 0.128403 0.879846
vt 0.127051 0.439339
vt 0.164303 0.879735
vt 0.162952 0.439229
vt 0.204194 0.879613
vt 0.000000 0.197605
vt 0.008423 0.155257
vt 0.000000 0.240783
vt 0.246541 0.879483
vt 0.245190 0.438976
vt 0.202842 0.439106
vt 0.438388 0.878895
vt 0.438388 0.001045
vt 0.998649 0.441552
vt 0.439739 0.882916
vt 0.024947 0.115367
vt 0.048935 0.079466
vt 0.079466 0.048935
vt 0.115366 0.024947
vt 0.155257 0.008424
vt 0.197605 0.000000
vt 0.240782 0.000000
vt 0.283130 0.008423
vt 0.323021 0.024947
vt 0.358922 0.048935
vt 0.389453 0.079466
vt 0.413441 0.115367
vt 0.429964 0.155257
vt 0.438388 0.197605
vt 0.438388 0.240783
vt 0.429964 0.283130
vt 0.413441 0.323021
vt 0.389453 0.358922
vt 0.358922 0.389453
vt 0.323021 0.413441
vt 0.283130 0.429964
vt 0.240783 0.438388
vt 0.197605 0.438388
vt 0.155257 0.429964
vt 0.115367 0.413441
vt 0.079466 0.389453
vt 0.048935 0.358922
vt 0.024947 0.323021
vt 0.008423 0.283130
vn 0.098017 0.000000 -0.995185
vn 0.290285 0.000000 -0.956940
vn 0.471397 0.000000 -0.881921
vn 0.634393 0.000000 -0.773010
vn 0.773010 0.000000 -0.634393
vn 0.881921 0.000000 -0.471397
vn 0.956940 0.000000 -0.290285
vn 0.995185 0.000000 -0.098017
vn 0.995185 0.000000 0.098017
vn 0.956940 0.000000 0.290285
vn 0.881921 0.000000 0.471396
vn 0.773010 0.000000 0.634393
vn 0.634393 0.000000 0.773010
vn 0.471397 0.000000 0.881921
vn 0.290284 0.000000 0.956940
vn 0.098017 0.000000 0.995185
vn -0.098018 0.000000 0.995185
vn -0.290285 0.000000 0.956940
vn -0.471397 0.000000 0.881921
vn -0.634394 0.000000 0.773010
vn -0.773011 0.000000 0.634393
vn -0.881922 0.000000 0.471396
vn -0.956941 0.000000 0.290284
vn -0.995185 0.000000 0.098016
vn -0.995185 -0.000000 -0.098018
vn -0.956940 -0.000000 -0.290286
vn -0.881921 -0.000000 -0.471398
vn -0.773010 -0.000000 -0.634394
vn -0.634392 -0.000000 -0.773011
vn -0.471395 -0.000000 -0.881922
vn -0.000000 1.000000 0.000000
vn -0.098017 -0.000000 -0.995185
vn -0.290283 -0.000000 -0.956941
s off
f 1/1/1 2/2/1 4/3/1
f 3/4/2 4/3/2 6/5/2
f 5/6/3 6/5/3 8/7/3
f 7/8/4 8/7/4 10/9/4
f 9/10/5 10/11/5 12/12/5
f 11/13/6 12/12/6 14/14/6
f 13/15/7 14/14/7 16/16/7
f 15/17/8 16/16/8 18/18/8
f 17/19/9 18/18/9 20/20/9
f 19/21/10 20/20/10 22/22/10
f 21/23/11 22/22/11 24/24/11
f 23/25/12 24/24/12 26/26/12
f 25/27/13 26/26/13 28/28/13
f 27/29/14 28/30/14 30/31/14
f 29/32/15 30/31/15 32/33/15
f 31/34/16 32/33/16 34/35/16
f 33/36/17 34/35/17 35/37/17
f 35/37/18 36/38/18 37/39/18
f 37/39/19 38/40/19 39/41/19
f 39/41/20 40/42/20 41/43/20
f 41/44/21 42/45/21 43/46/21
f 43/46/22 44/47/22 45/48/22
f 45/48/23 46/49/23 47/50/23
f 47/50/24 48/51/24 49/52/24
f 49/52/25 50/53/25 51/54/25
f 51/54/26 52/55/26 53/56/26
f 53/56/27 54/57/27 55/58/27
f 55/59/28 56/60/28 57/61/28
f 57/61/29 58/62/29 59/63/29
f 59/63/30 60/64/30 61/65/30
f 4/66/31 2/67/31 6/68/31
f 63/69/32 64/70/32 1/1/32
f 61/65/33 62/71/33 63/69/33
f 3/4/1 1/1/1 4/3/1
f 5/6/2 3/4/2 6/5/2
f 7/8/3 5/6/3 8/7/3
f 9/72/4 7/8/4 10/9/4
f 11/13/5 9/10/5 12/12/5
f 13/15/6 11/13/6 14/14/6
f 15/17/7 13/15/7 16/16/7
f 17/19/8 15/17/8 18/18/8
f 19/21/9 17/19/9 20/20/9
f 21/23/10 19/21/10 22/22/10
f 23/25/11 21/23/11 24/24/11
f 25/27/12 23/25/12 26/26/12
f 27/73/13 25/27/13 28/28/13
f 29/32/14 27/29/14 30/31/14
f 31/34/15 29/32/15 32/33/15
f 33/36/16 31/34/16 34/35/16
f 34/35/17 36/38/17 35/37/17
f 36/38/18 38/40/18 37/39/18
f 38/40/19 40/42/19 39/41/19
f 40/42/20 42/74/20 41/43/20
f 42/45/21 44/47/21 43/46/21
f 44/47/22 46/49/22 45/48/22
f 46/49/23 48/51/23 47/50/23
f 48/51/24 50/53/24 49/52/24
f 50/53/25 52/55/25 51/54/25
f 52/55/26 54/57/26 53/56/26
f 54/57/27 56/75/27 55/58/27
f 56/60/28 58/62/28 57/61/28
f 58/62/29 60/64/29 59/63/29
f 60/64/30 62/71/30 61/65/30
f 2/67/31 64/76/31 6/68/31
f 64/76/31 62/77/31 6/68/31
f 62/77/31 60/78/31 6/68/31
f 60/78/31 58/79/31 6/68/31
f 58/79/31 56/80/31 6/68/31
f 56/80/31 54/81/31 6/68/31
f 54/81/31 52/82/31 6/68/31
f 52/82/31 50/83/31 6/68/31
f 50/83/31 48/84/31 6/68/31
f 48/84/31 46/85/31 6/68/31
f 46/85/31 44/86/31 6/68/31
f 44/86/31 42/87/31 6/68/31
f 42/87/31 40/88/31 6/68/31
f 40/88/31 38/89/31 6/68/31
f 38/89/31 36/90/31 6/68/31
f 36/90/31 34/91/31 6/68/31
f 34/91/31 32/92/31 6/68/31
f 32/92/31 30/93/31 6/68/31
f 30/93/31 28/94/31 6/68/31
f 28/94/31 26/95/31 6/68/31
f 26/95/31 24/96/31 6/68/31
f 24/96/31 22/97/31 6/68/31
f 22/97/31 20/98/31 6/68/31
f 20/98/31 18/99/31 6/68/31
f 18/99/31 16/100/31 6/68/31
f 16/100/31 14/101/31 6/68/31
f 14/101/31 12/102/31 6/68/31
f 12/102/31 10/103/31 8/104/31
f 6/68/31 12/102/31 8/104/31
f 64/70/32 2/2/32 1/1/32
f 62/71/33 64/70/33 63/69/33
