# Blender v2.66 (sub 0) OBJ File: 'cylinder_filled.blend'
# www.blender.org
o Cylinder
v 0.000000 -1.000000 -1.000000
v 0.000000 1.000000 -1.000000
v 0.195090 -1.000000 -0.980785
v 0.195090 1.000000 -0.980785
v 0.382683 -1.000000 -0.923880
v 0.382683 1.000000 -0.923880
v 0.555570 -1.000000 -0.831470
v 0.555570 1.000000 -0.831470
v 0.707107 -1.000000 -0.707107
v 0.707107 1.000000 -0.707107
v 0.831470 -1.000000 -0.555570
v 0.831470 1.000000 -0.555570
v 0.923880 -1.000000 -0.382683
v 0.923880 1.000000 -0.382683
v 0.980785 -1.000000 -0.195090
v 0.980785 1.000000 -0.195090
v 1.000000 -1.000000 -0.000000
v 1.000000 1.000000 -0.000000
v 0.980785 -1.000000 0.195090
v 0.980785 1.000000 0.195090
v 0.923880 -1.000000 0.382683
v 0.923880 1.000000 0.382683
v 0.831470 -1.000000 0.555570
v 0.831470 1.000000 0.555570
v 0.707107 -1.000000 0.707107
v 0.707107 1.000000 0.707107
v 0.555570 -1.000000 0.831470
v 0.555570 1.000000 0.831470
v 0.382683 -1.000000 0.923880
v 0.382683 1.000000 0.923880
v 0.195090 -1.000000 0.980785
v 0.195090 1.000000 0.980785
v -0.000000 -1.000000 1.000000
v -0.000000 1.000000 1.000000
v -0.195091 -1.000000 0.980785
v -0.195091 1.000000 0.980785
v -0.382684 -1.000000 0.923879
v -0.382684 1.000000 0.923879
v -0.555571 -1.000000 0.831469
v -0.555571 1.000000 0.831469
v -0.707107 -1.000000 0.707106
v -0.707107 1.000000 0.707106
v -0.831470 -1.000000 0.555570
v -0.831470 1.000000 0.555570
v -0.923880 -1.000000 0.382683
v -0.923880 1.000000 0.382683
v -0.980785 -1.000000 0.195089
v -0.980785 1.000000 0.195089
v -1.000000 -1.000000 -0.000001
v -1.000000 1.000000 -0.000001
v -0.980785 -1.000000 -0.195091
v -0.980785 1.000000 -0.195091
v -0.923879 -1.000000 -0.382684
v -0.923879 1.000000 -0.382684
v -0.831469 -1.000000 -0.555571
v -0.831469 1.000000 -0.555571
v -0.707106 -1.000000 -0.707108
v -0.707106 1.000000 -0.707108
v -0.555569 -1.000000 -0.831470
v -0.555569 1.000000 -0.831470
v -0.382682 -1.000000 -0.923880
v -0.382682 1.000000 -0.923880
v -0.195089 -1.000000 -0.980786
v -0.195089 1.000000 -0.980786
vt 0.059001 0.355439
vt 0.057906 0.712417
vt 0.027048 0.712322
vt 0.028143 0.355344
vt 0.000000 0.712239
vt 0.998905 0.355261
vt 1.000000 0.712239
vt 0.972952 0.712322
vt 0.971857 0.355344
vt 0.942094 0.712417
vt 0.940999 0.355439
vt 0.908611 0.712520
vt 0.907515 0.355541
vt 0.873789 0.712627
vt 0.872694 0.355648
vt 0.838968 0.712733
vt 0.837872 0.355755
vt 0.805484 0.712836
vt 0.777341 0.713350
vt 0.776246 1.070328
vt 0.742763 1.070225
vt 0.743858 0.713247
vt 0.707941 1.070119
vt 0.709036 0.713140
vt 0.673120 1.070012
vt 0.674215 0.713033
vt 0.639636 1.069909
vt 0.640732 0.712931
vt 0.608778 1.069814
vt 0.609873 0.712836
vt 0.608778 0.355858
vt 0.642261 0.355755
vt 0.643357 0.712733
vt 0.677083 0.355648
vt 0.678178 0.712627
vt 0.711904 0.355541
vt 0.713000 0.712520
vt 0.746483 0.712417
vt 0.745388 0.355439
vt 0.777341 0.712322
vt 0.776246 0.355344
vt 0.804389 0.712239
vt 0.607683 0.355261
vt 0.608778 0.712239
vt 0.580635 0.355344
vt 0.581730 0.712322
vt 0.549777 0.355439
vt 0.550872 0.712417
vt 0.516293 0.355541
vt 0.517389 0.712520
vt 0.481472 0.355648
vt 0.482567 0.712627
vt 0.446650 0.355755
vt 0.447746 0.712733
vt 0.413167 0.355858
vt 0.414262 0.712836
vt 0.382309 0.355952
vt 0.383404 0.712931
vt 0.355261 0.356035
vt 0.226469 0.355952
vt 0.225374 0.712931
vt 0.195611 0.355858
vt 0.194516 0.712836
vt 0.162127 0.355755
vt 0.161032 0.712733
vt 0.127306 0.355648
vt 0.000000 0.160135
vt 0.006826 0.125818
vt 0.000000 0.195126
vt 0.092484 0.355541
vt 0.091389 0.712520
vt 0.126211 0.712627
vt 0.394917 0.290863
vt 0.375477 0.261770
vt 0.419658 0.315605
vt 0.001095 0.355261
vt 0.804389 0.355858
vt 0.803294 0.355261
vt 0.356356 0.713014
vt 0.020216 0.093491
vt 0.039656 0.064398
vt 0.064397 0.039656
vt 0.093491 0.020217
vt 0.125817 0.006826
vt 0.160135 0.000000
vt 0.195125 0.000000
vt 0.229443 0.006826
vt 0.261770 0.020216
vt 0.290863 0.039656
vt 0.315605 0.064398
vt 0.335045 0.093491
vt 0.348435 0.125818
vt 0.355261 0.160135
vt 0.355261 0.195126
vt 0.348435 0.229443
vt 0.335045 0.261770
vt 0.315605 0.290863
vt 0.290863 0.315605
vt 0.261770 0.335045
vt 0.229443 0.348435
vt 0.195126 0.355261
vt 0.160135 0.355261
vt 0.125818 0.348435
vt 0.093491 0.335045
vt 0.064398 0.315605
vt 0.039656 0.290863
vt 0.020216 0.261770
vt 0.006826 0.229443
vt 0.362087 0.229443
vt 0.362087 0.125818
vt 0.375477 0.093491
vt 0.394917 0.064398
vt 0.419659 0.039656
vt 0.448752 0.020216
vt 0.481079 0.006826
vt 0.515396 0.000000
vt 0.550387 0.000000
vt 0.584704 0.006826
vt 0.617031 0.020216
vt 0.646124 0.039656
vt 0.670866 0.064398
vt 0.690306 0.093491
vt 0.703696 0.125818
vt 0.710522 0.160136
vt 0.710522 0.195126
vt 0.703696 0.229444
vt 0.690306 0.261770
vt 0.670866 0.290864
vt 0.646124 0.315605
vt 0.617031 0.335045
vt 0.584704 0.348435
vt 0.550386 0.355261
vt 0.515396 0.355261
vt 0.481078 0.348435
vt 0.448752 0.335045
vn 0.098017 0.000000 -0.995185
vn 0.290285 0.000000 -0.956940
vn 0.471397 0.000000 -0.881921
vn 0.634393 0.000000 -0.773010
vn 0.773010 0.000000 -0.634393
vn 0.881921 0.000000 -0.471397
vn 0.956940 0.000000 -0.290285
vn 0.995185 0.000000 -0.098017
vn 0.995185 0.000000 0.098017
vn 0.956940 0.000000 0.290285
vn 0.881921 0.000000 0.471396
vn 0.773010 0.000000 0.634393
vn 0.634393 0.000000 0.773010
vn 0.471397 0.000000 0.881921
vn 0.290284 0.000000 0.956940
vn 0.098017 0.000000 0.995185
vn -0.098018 0.000000 0.995185
vn -0.290285 0.000000 0.956940
vn -0.471397 0.000000 0.881921
vn -0.634394 0.000000 0.773010
vn -0.773011 0.000000 0.634393
vn -0.881922 0.000000 0.471396
vn -0.956941 0.000000 0.290284
vn -0.995185 0.000000 0.098016
vn -0.995185 -0.000000 -0.098018
vn -0.956940 -0.000000 -0.290286
vn -0.881921 -0.000000 -0.471398
vn -0.773010 -0.000000 -0.634394
vn -0.634392 -0.000000 -0.773011
vn -0.471395 -0.000000 -0.881922
vn -0.000000 1.000000 0.000000
vn -0.098017 -0.000000 -0.995185
vn -0.290283 -0.000000 -0.956941
vn -0.000000 -1.000000 -0.000000
s off
f 1/1/1 2/2/1 4/3/1
f 3/4/2 4/3/2 6/5/2
f 5/6/3 6/7/3 8/8/3
f 7/9/4 8/8/4 10/10/4
f 9/11/5 10/10/5 12/12/5
f 11/13/6 12/12/6 14/14/6
f 13/15/7 14/14/7 16/16/7
f 15/17/8 16/16/8 18/18/8
f 17/19/9 18/20/9 20/21/9
f 19/22/10 20/21/10 22/23/10
f 21/24/11 22/23/11 24/25/11
f 23/26/12 24/25/12 26/27/12
f 25/28/13 26/27/13 28/29/13
f 27/30/14 28/31/14 30/32/14
f 29/33/15 30/32/15 32/34/15
f 31/35/16 32/34/16 34/36/16
f 33/37/17 34/36/17 35/38/17
f 35/38/18 36/39/18 37/40/18
f 37/40/19 38/41/19 39/42/19
f 39/43/20 40/44/20 41/45/20
f 41/45/21 42/46/21 43/47/21
f 43/47/22 44/48/22 45/49/22
f 45/49/23 46/50/23 47/51/23
f 47/51/24 48/52/24 49/53/24
f 49/53/25 50/54/25 51/55/25
f 51/55/26 52/56/26 53/57/26
f 53/57/27 54/58/27 55/59/27
f 55/60/28 56/61/28 57/62/28
f 57/62/29 58/63/29 59/64/29
f 59/64/30 60/65/30 61/66/30
f 4/67/31 2/68/31 6/69/31
f 63/70/32 64/71/32 1/1/32
f 61/66/33 62/72/33 63/70/33
f 63/73/34 1/74/34 61/75/34
f 3/4/1 1/1/1 4/3/1
f 5/76/2 3/4/2 6/5/2
f 7/9/3 5/6/3 8/8/3
f 9/11/4 7/9/4 10/10/4
f 11/13/5 9/11/5 12/12/5
f 13/15/6 11/13/6 14/14/6
f 15/17/7 13/15/7 16/16/7
f 17/77/8 15/17/8 18/18/8
f 19/22/9 17/19/9 20/21/9
f 21/24/10 19/22/10 22/23/10
f 23/26/11 21/24/11 24/25/11
f 25/28/12 23/26/12 26/27/12
f 27/30/13 25/28/13 28/29/13
f 29/33/14 27/30/14 30/32/14
f 31/35/15 29/33/15 32/34/15
f 33/37/16 31/35/16 34/36/16
f 34/36/17 36/39/17 35/38/17
f 36/39/18 38/41/18 37/40/18
f 38/41/19 40/78/19 39/42/19
f 40/44/20 42/46/20 41/45/20
f 42/46/21 44/48/21 43/47/21
f 44/48/22 46/50/22 45/49/22
f 46/50/23 48/52/23 47/51/23
f 48/52/24 50/54/24 49/53/24
f 50/54/25 52/56/25 51/55/25
f 52/56/26 54/58/26 53/57/26
f 54/58/27 56/79/27 55/59/27
f 56/61/28 58/63/28 57/62/28
f 58/63/29 60/65/29 59/64/29
f 60/65/30 62/72/30 61/66/30
f 2/68/31 64/80/31 6/69/31
f 64/80/31 62/81/31 6/69/31
f 62/81/31 60/82/31 6/69/31
f 60/82/31 58/83/31 6/69/31
f 58/83/31 56/84/31 6/69/31
f 56/84/31 54/85/31 6/69/31
f 54/85/31 52/86/31 6/69/31
f 52/86/31 50/87/31 6/69/31
f 50/87/31 48/88/31 6/69/31
f 48/88/31 46/89/31 6/69/31
f 46/89/31 44/90/31 6/69/31
f 44/90/31 42/91/31 6/69/31
f 42/91/31 40/92/31 6/69/31
f 40/92/31 38/93/31 6/69/31
f 38/93/31 36/94/31 6/69/31
f 36/94/31 34/95/31 6/69/31
f 34/95/31 32/96/31 6/69/31
f 32/96/31 30/97/31 6/69/31
f 30/97/31 28/98/31 6/69/31
f 28/98/31 26/99/31 6/69/31
f 26/99/31 24/100/31 6/69/31
f 24/100/31 22/101/31 6/69/31
f 22/101/31 20/102/31 6/69/31
f 20/102/31 18/103/31 6/69/31
f 18/103/31 16/104/31 6/69/31
f 16/104/31 14/105/31 6/69/31
f 14/105/31 12/106/31 6/69/31
f 12/106/31 10/107/31 8/108/31
f 6/69/31 12/106/31 8/108/31
f 64/71/32 2/2/32 1/1/32
f 62/72/33 64/71/33 63/70/33
f 1/74/34 3/109/34 61/75/34
f 3/109/34 5/94/34 61/75/34
f 5/94/34 7/93/34 61/75/34
f 7/93/34 9/110/34 61/75/34
f 9/110/34 11/111/34 61/75/34
f 11/111/34 13/112/34 61/75/34
f 13/112/34 15/113/34 61/75/34
f 15/113/34 17/114/34 61/75/34
f 17/114/34 19/115/34 61/75/34
f 19/115/34 21/116/34 61/75/34
f 21/116/34 23/117/34 61/75/34
f 23/117/34 25/118/34 61/75/34
f 25/118/34 27/119/34 61/75/34
f 27/119/34 29/120/34 61/75/34
f 29/120/34 31/121/34 61/75/34
f 31/121/34 33/122/34 61/75/34
f 33/122/34 35/123/34 61/75/34
f 35/123/34 37/124/34 61/75/34
f 37/124/34 39/125/34 61/75/34
f 39/125/34 41/126/34 61/75/34
f 41/126/34 43/127/34 61/75/34
f 43/127/34 45/128/34 61/75/34
f 45/128/34 47/129/34 61/75/34
f 47/129/34 49/130/34 61/75/34
f 49/130/34 51/131/34 61/75/34
f 51/131/34 53/132/34 61/75/34
f 53/132/34 55/133/34 61/75/34
f 55/133/34 57/134/34 59/135/34
f 61/75/34 55/133/34 59/135/34
