# Blender v2.66 (sub 0) OBJ File: 'pyramid_filled.blend'
# www.blender.org
o Cone_Cone.001
v 1.000000 -1.000000 -0.999999
v 0.999999 -1.000000 1.000000
v -1.000000 -1.000000 0.999999
v 0.000000 1.000000 0.000000
v -0.999999 -1.000000 -1.000000
vt 0.323067 0.577790
vt 0.000097 0.866793
vt 0.000000 0.433396
vt 0.646133 0.144393
vt 0.323164 0.433396
vt 0.323067 0.000000
vt 0.646133 0.577790
vt 0.323163 0.866793
vt 0.323067 0.433396
vt 0.323067 0.144393
vt 0.000097 0.433396
vt 0.000000 0.000000
vt 0.646133 0.787263
vt 0.646133 0.433396
vt 1.000000 0.433396
vt 1.000000 0.787263
vn -0.894427 0.447214 -0.000000
vn 0.894427 0.447213 0.000000
vn 0.000000 0.447214 -0.894427
vn -0.000000 0.447214 0.894427
vn 0.000000 -1.000000 -0.000000
s off
f 3/1/1 4/2/1 5/3/1
f 1/4/2 4/5/2 2/6/2
f 5/7/3 4/8/3 1/9/3
f 2/10/4 4/11/4 3/12/4
f 5/13/5 1/14/5 2/15/5
f 3/16/5 5/13/5 2/15/5
