# Blender v2.66 (sub 0) OBJ File: 'pyramid.blend'
# www.blender.org
o Cone_Cone.001
v 1.000000 -1.000000 -0.999999
v 0.999999 -1.000000 1.000000
v -1.000000 -1.000000 0.999999
v 0.000000 1.000000 0.000000
v -0.999999 -1.000000 -1.000000
vt 0.999900 0.000100
vt 0.500000 0.500000
vt 0.000100 0.000100
vt 0.000100 0.999900
vt 0.999900 0.999900
vn -0.577349 0.577349 0.577349
vn 0.000000 1.000000 0.000000
vn -0.577349 0.577349 -0.577349
vn 0.577349 0.577349 -0.577349
vn 0.577349 0.577349 0.577349
s 1
f 3/1/1 4/2/2 5/3/3
f 1/4/4 4/2/2 2/5/5
f 5/3/3 4/2/2 1/4/4
f 2/5/5 4/2/2 3/1/1
