# Blender v2.66 (sub 0) OBJ File: 'pyramid.blend'
# www.blender.org
o Cone_Cone.001
v 1.000000 -1.000000 -0.999999
v 0.999999 -1.000000 1.000000
v -1.000000 -1.000000 0.999999
v 0.000000 1.000000 0.000000
v -0.999999 -1.000000 -1.000000
vt 0.999900 0.000100
vt 0.500000 0.500000
vt 0.000100 0.000100
vt 0.000100 0.999900
vt 0.999900 0.999900
vn -0.894427 0.447214 -0.000000
vn 0.894427 0.447213 0.000000
vn 0.000000 0.447214 -0.894427
vn -0.000000 0.447214 0.894427
s off
f 3/1/1 4/2/1 5/3/1
f 1/4/2 4/2/2 2/5/2
f 5/3/3 4/2/3 1/4/3
f 2/5/4 4/2/4 3/1/4
