/* XPM */
static char *product_logo___[] = {
/* columns rows colors chars-per-pixel */
"32 32 78 1",
"  c #2F5D92",
". c #315F93",
"X c #346396",
"o c #3B6B9D",
"O c #4172A1",
"+ c #4977A4",
"@ c #4B79A5",
"# c #4F7DAA",
"$ c #517EA9",
"% c #427EBF",
"& c #5581AB",
"* c #5A84AE",
"= c #5685B7",
"- c #5D87B0",
"; c #5E89B2",
": c #5B8BBD",
"> c #628BB4",
", c #648DBA",
"< c #6890B6",
"1 c #6C93B9",
"2 c #769ABD",
"3 c #4C84C3",
"4 c #5589C6",
"5 c #598BC7",
"6 c #5C8DC8",
"7 c #6592CB",
"8 c #6C96CE",
"9 c #6D99CC",
"0 c #759AC2",
"q c #7099CF",
"w c #679CD2",
"e c #6A9ED3",
"r c #749CD1",
"t c #789FD3",
"y c #6EA1D5",
"u c #72A5D7",
"i c #7BA3D5",
"p c #75A7D8",
"a c #77A9D9",
"s c #7CACDB",
"d c #81A7D7",
"f c #84ACDA",
"g c #8AAEDB",
"h c #82B2DE",
"j c #8EB3DD",
"k c #91B3DB",
"l c #9BB9DF",
"z c #87B5E0",
"x c #89B7E1",
"c c #93B6E0",
"v c #94BCE2",
"b c #98BBE2",
"n c #A1BFE2",
"m c #97C0E4",
"M c #9DC3E5",
"N c #A3C5E6",
"B c #A5C8E7",
"V c #A6C8E8",
"C c #ACCDE9",
"Z c #B5CBE0",
"A c #B2CEE9",
"S c #BBCFE8",
"D c #BED2E6",
"F c #B6D2EB",
"G c #BBD5EC",
"H c #BFD8ED",
"J c #C3D6EA",
"K c #C4DAEE",
"L c #CBDCED",
"P c #CBDFF0",
"I c #CEE1F1",
"U c #D0E2F1",
"Y c #DAE7F2",
"T c #DDE8F3",
"R c #E7EEF5",
"E c #E8EFF7",
"W c #F0F6FB",
"Q c None",
/* pixels */
"QQQQQQQQQQQQQQQQQQQQQQQQQQQQQQQQ",
"QQQQQQQQQQQQQQQQQQQQQQQQQQQQQQQQ",
"QQQQQQQQQQQQ,,,,,,,,QQQQQQQQQQQQ",
"QQQQQQQQQ>,,<,,,,,,,,>>QQQQQQQQQ",
"QQQQQQQQ->>>>,><,,>>>>**QQQQQQQQ",
"QQQQQQ#&&*-->;>>>>>;***&#@QQQQQQ",
"QQQQQ++@&&&***--****&&$@+OOQQQQQ",
"QQQQQoO++@@#$&&&&$$$@@+OOOOQQQQQ",
"QQQQ9oOoOO+++++++++OOOOOOoOOQQQQ",
"QQQhh&oOOOOoOO#;;>;-;;->;>;;1QQQ",
"QQQhxiooOOOO,ZDJJJLSAAAGGHKLIQQQ",
"QQQhhx=XooO2LNklbcnPGAAJPIIIIQQQ",
"QQshxxsoXo2LggkkcjggILUUUUIUIIQQ",
"QQshxxx:  LkddfggffdlRUUIUUUIIQQ",
"QQshxxxso+TqiddddddttRYIUUUUIPQQ",
"QQshzxxxw&D9qtrtittreKYUUUIIIIQQ",
"QQsshxxxh0S78qqqrqq87DTIUUUIILQQ",
"QQashxxxxlU5677777766LYUUUUUIKQQ",
"QQassxxxxxW8456666547RUIUUUILKQQ",
"QQusshxxxxCY%3333334LYUUIUIPKHQQ",
"QQQassxxxxxUJ4%%%%4LYIUUIIIPHQQQ",
"QQQuassxxxxxVYDkkJTAIUUIIPPKFQQQ",
"QQQyuashxxxxxxMMnvzJUUUIIPKGFQQQ",
"QQQQypasshhxxxxxhfMPUIIIPHGCQQQQ",
"QQQQQypasshhxxxxszKIIIPPHFCQQQQQ",
"QQQQQeyuaasssszssVIIPKHHFCVQQQQQ",
"QQQQQQwyyupasssssPKKHGFAVMQQQQQQ",
"QQQQQQQQwyyuuppuBGGFFCVMQQQQQQQQ",
"QQQQQQQQQwwyyyysCCCVVmmQQQQQQQQQ",
"QQQQQQQQQQQQwwwvvmvvQQQQQQQQQQQQ",
"QQQQQQQQQQQQQQQQQQQQQQQQQQQQQQQQ",
"QQQQQQQQQQQQQQQQQQQQQQQQQQQQQQQQ"
};
