# Blender v2.69 (sub 0) OBJ File: 'arrow.blend'
# www.blender.org
v 0.000000 1.000000 0.000000
v 0.000000 0.000000 -1.000000
v -0.195090 0.000000 -0.980785
v -0.382683 0.000000 -0.923880
v -0.555570 0.000000 -0.831470
v -0.707107 0.000000 -0.707107
v -0.831470 0.000000 -0.555570
v -0.923880 0.000000 -0.382683
v -0.980785 0.000000 -0.195090
v -1.000000 0.000000 -0.000000
v -0.980785 0.000000 0.195090
v -0.923880 0.000000 0.382683
v -0.831470 0.000000 0.555570
v -0.707107 0.000000 0.707107
v -0.555570 0.000000 0.831470
v -0.382683 0.000000 0.923880
v -0.195090 0.000000 0.980785
v 0.000000 0.000000 1.000000
v 0.195091 0.000000 0.980785
v 0.382684 0.000000 0.923879
v 0.555571 0.000000 0.831469
v 0.707107 0.000000 0.707106
v 0.831470 0.000000 0.555570
v 0.923880 0.000000 0.382683
v 0.980785 0.000000 0.195089
v 1.000000 0.000000 -0.000001
v 0.980785 0.000000 -0.195091
v 0.923879 0.000000 -0.382684
v 0.831469 0.000000 -0.555571
v 0.707106 0.000000 -0.707108
v 0.555569 0.000000 -0.831470
v 0.382682 0.000000 -0.923880
v 0.195089 0.000000 -0.980786
v 0.000000 0.000000 0.000000
v 0.000000 0.000000 0.000000
v -0.000000 0.000000 -0.578860
v -0.112930 0.000000 -0.567737
v -0.221520 0.000000 -0.534796
v -0.321597 0.000000 -0.481304
v -0.409315 0.000000 -0.409316
v -0.481304 0.000000 -0.321597
v -0.534796 0.000000 -0.221520
v -0.567737 0.000000 -0.112930
v -0.578859 0.000000 -0.000000
v -0.567737 0.000000 0.112930
v -0.534796 0.000000 0.221520
v -0.481304 0.000000 0.321597
v -0.409315 0.000000 0.409315
v -0.321597 0.000000 0.481304
v -0.221520 0.000000 0.534796
v -0.112930 0.000000 0.567737
v 0.000000 0.000000 0.578859
v 0.112930 0.000000 0.567737
v 0.221520 0.000000 0.534796
v 0.321597 0.000000 0.481304
v 0.409316 0.000000 0.409315
v 0.481304 0.000000 0.321597
v 0.534796 0.000000 0.221519
v 0.567737 0.000000 0.112929
v 0.578859 0.000000 -0.000001
v 0.567737 0.000000 -0.112931
v 0.534796 0.000000 -0.221521
v 0.481304 0.000000 -0.321598
v 0.409315 0.000000 -0.409316
v 0.321596 0.000000 -0.481305
v 0.221519 0.000000 -0.534797
v 0.112929 0.000000 -0.567737
v 0.578859 -1.000000 -0.000001
v 0.567737 -1.000000 0.112929
v -0.221520 -1.000000 -0.534796
v -0.112930 -1.000000 -0.567737
v -0.321597 -1.000000 0.481304
v -0.409315 -1.000000 0.409315
v 0.534796 -1.000000 0.221519
v 0.481304 -1.000000 0.321597
v -0.481304 -1.000000 0.321597
v -0.534796 -1.000000 0.221520
v 0.112929 -1.000000 -0.567737
v 0.221519 -1.000000 -0.534797
v 0.409316 -1.000000 0.409315
v 0.321597 -1.000000 0.481304
v -0.567737 -1.000000 0.112930
v -0.578859 -1.000000 -0.000000
v 0.321596 -1.000000 -0.481305
v 0.409315 -1.000000 -0.409316
v 0.221520 -1.000000 0.534796
v 0.112930 -1.000000 0.567737
v -0.567737 -1.000000 -0.112930
v -0.534796 -1.000000 -0.221520
v 0.481304 -1.000000 -0.321598
v 0.534796 -1.000000 -0.221521
v -0.481304 -1.000000 -0.321597
v -0.409315 -1.000000 -0.409316
v 0.000000 -1.000000 0.578859
v -0.112930 -1.000000 0.567737
v 0.567737 -1.000000 -0.112931
v -0.321597 -1.000000 -0.481304
v -0.221520 -1.000000 0.534796
v -0.000000 -1.000000 -0.578860
vt 0.000000 0.000000
vt 0.549236 0.999900
vt 0.450764 0.999900
vt 0.645815 0.980689
vt 0.354184 0.980689
vt 0.263208 0.943005
vt 0.181332 0.888297
vt 0.111702 0.818667
vt 0.056994 0.736790
vt 0.019311 0.645815
vt 0.000100 0.549235
vt 0.000100 0.450763
vt 0.019310 0.354184
vt 0.056994 0.263208
vt 0.111702 0.181332
vt 0.943005 0.263208
vt 0.818666 0.111702
vt 0.888296 0.181332
vt 0.980688 0.354184
vt 0.999899 0.549236
vt 0.999899 0.450764
vt 0.943005 0.736791
vt 0.980689 0.645815
vt 0.181332 0.111702
vt 0.736791 0.943006
vt 0.263209 0.056994
vt 0.354185 0.019311
vt 0.450764 0.000100
vt 0.818667 0.888298
vt 0.888297 0.818668
vt 0.549235 0.000100
vt 0.645815 0.019311
vt 0.736791 0.056994
vn -0.069476 0.705398 -0.705398
vn -0.205757 0.705398 -0.678290
vn -0.334131 0.705398 -0.625116
vn -0.449665 0.705398 -0.547918
vn -0.547918 0.705398 -0.449665
vn -0.625116 0.705398 -0.334131
vn -0.678290 0.705398 -0.205757
vn -0.705398 0.705398 -0.069476
vn -0.705398 0.705398 0.069476
vn -0.678290 0.705398 0.205757
vn -0.625116 0.705398 0.334131
vn -0.547918 0.705398 0.449665
vn -0.449665 0.705398 0.547918
vn -0.334131 0.705398 0.625116
vn -0.205757 0.705398 0.678290
vn -0.069476 0.705398 0.705398
vn 0.069476 0.705398 0.705398
vn 0.205757 0.705398 0.678290
vn 0.334132 0.705398 0.625116
vn 0.449665 0.705398 0.547918
vn 0.547919 0.705398 0.449665
vn 0.625116 0.705398 0.334131
vn 0.678290 0.705398 0.205756
vn 0.705398 0.705398 0.069475
vn 0.705398 0.705398 -0.069476
vn 0.678290 0.705398 -0.205758
vn 0.625115 0.705398 -0.334132
vn 0.547918 0.705398 -0.449666
vn 0.449664 0.705398 -0.547919
vn 0.334130 0.705398 -0.625116
vn 0.205756 0.705398 -0.678290
vn 0.069475 0.705398 -0.705398
vn 0.000000 -1.000000 0.000000
vn -0.290284 0.000000 0.956940
vn -0.098016 0.000000 0.995185
vn -0.634393 0.000000 -0.773010
vn -0.773011 0.000000 -0.634393
vn 0.956940 0.000000 -0.290286
vn 0.881921 0.000000 -0.471398
vn -0.881922 0.000000 -0.471396
vn -0.956940 0.000000 -0.290285
vn 0.098017 0.000000 0.995185
vn 0.290284 0.000000 0.956940
vn 0.773010 0.000000 -0.634394
vn 0.634392 0.000000 -0.773011
vn -0.995185 0.000000 -0.098017
vn -0.995185 0.000000 0.098017
vn 0.471397 0.000000 0.881921
vn 0.634394 0.000000 0.773010
vn 0.471395 0.000000 -0.881922
vn 0.290283 0.000000 -0.956941
vn 0.098017 0.000000 -0.995185
vn -0.956940 0.000000 0.290285
vn -0.881921 0.000000 0.471396
vn 0.773011 0.000000 0.634393
vn 0.881922 0.000000 0.471396
vn -0.773010 0.000000 0.634393
vn -0.634393 0.000000 0.773010
vn -0.471397 0.000000 0.881921
vn -0.098018 0.000000 -0.995185
vn -0.290284 0.000000 -0.956940
vn -0.471397 0.000000 -0.881921
vn 0.956941 0.000000 0.290284
vn 0.995185 0.000000 0.098016
vn 0.995185 0.000000 -0.098018
vn 0.000000 -1.000000 -0.000004
vn 0.000000 -1.000000 -0.000001
vn 0.000000 -1.000000 0.000001
vn -0.098017 0.000000 0.995185
vn -0.773010 0.000000 -0.634393
vn -0.881921 0.000000 -0.471396
vn 0.098018 0.000000 0.995185
vn 0.290285 0.000000 0.956940
vn 0.773009 0.000000 -0.634394
vn 0.471396 0.000000 -0.881922
vn -0.881921 0.000000 0.471397
vn -0.098017 0.000000 -0.995185
vn -0.471396 0.000000 -0.881921
s off
f 1/1/1 2/1/1 3/1/1
f 1/1/2 3/1/2 4/1/2
f 1/1/3 4/1/3 5/1/3
f 1/1/4 5/1/4 6/1/4
f 1/1/5 6/1/5 7/1/5
f 1/1/6 7/1/6 8/1/6
f 1/1/7 8/1/7 9/1/7
f 1/1/8 9/1/8 10/1/8
f 1/1/9 10/1/9 11/1/9
f 1/1/10 11/1/10 12/1/10
f 1/1/11 12/1/11 13/1/11
f 1/1/12 13/1/12 14/1/12
f 1/1/13 14/1/13 15/1/13
f 1/1/14 15/1/14 16/1/14
f 1/1/15 16/1/15 17/1/15
f 1/1/16 17/1/16 18/1/16
f 1/1/17 18/1/17 19/1/17
f 1/1/18 19/1/18 20/1/18
f 1/1/19 20/1/19 21/1/19
f 1/1/20 21/1/20 22/1/20
f 1/1/21 22/1/21 23/1/21
f 1/1/22 23/1/22 24/1/22
f 1/1/23 24/1/23 25/1/23
f 1/1/24 25/1/24 26/1/24
f 1/1/25 26/1/25 27/1/25
f 1/1/26 27/1/26 28/1/26
f 1/1/27 28/1/27 29/1/27
f 1/1/28 29/1/28 30/1/28
f 1/1/29 30/1/29 31/1/29
f 1/1/30 31/1/30 32/1/30
f 1/1/31 32/1/31 33/1/31
f 1/1/32 33/1/32 2/1/32
f 24/1/33 23/1/33 58/1/33
f 13/1/33 12/1/33 47/1/33
f 2/1/33 33/1/33 36/1/33
f 23/1/33 22/1/33 57/1/33
f 12/1/33 11/1/33 46/1/33
f 33/1/33 32/1/33 67/1/33
f 22/1/33 21/1/33 56/1/33
f 11/1/33 10/1/33 45/1/33
f 32/1/33 31/1/33 66/1/33
f 21/1/33 20/1/33 55/1/33
f 10/1/33 9/1/33 44/1/33
f 31/1/33 30/1/33 65/1/33
f 20/1/33 19/1/33 54/1/33
f 9/1/33 8/1/33 43/1/33
f 30/1/33 29/1/33 64/1/33
f 19/1/33 18/1/33 53/1/33
f 3/1/33 2/1/33 37/1/33
f 8/1/33 7/1/33 42/1/33
f 29/1/33 28/1/33 63/1/33
f 7/1/33 6/1/33 41/1/33
f 18/1/33 17/1/33 52/1/33
f 28/1/33 27/1/33 62/1/33
f 6/1/33 5/1/33 40/1/33
f 17/1/33 16/1/33 51/1/33
f 27/1/33 26/1/33 61/1/33
f 5/1/33 4/1/33 39/1/33
f 16/1/33 15/1/33 50/1/33
f 26/1/33 25/1/33 60/1/33
f 4/1/33 3/1/33 38/1/33
f 15/1/33 14/1/33 49/1/33
f 25/1/33 24/1/33 59/1/33
f 14/1/33 13/1/33 48/1/33
f 81/2/33 86/3/33 80/4/33
f 51/1/34 50/1/34 95/1/34
f 52/1/35 51/1/35 94/1/35
f 40/1/36 39/1/36 93/1/36
f 41/1/37 40/1/37 92/1/37
f 62/1/38 61/1/38 91/1/38
f 63/1/39 62/1/39 90/1/39
f 42/1/40 41/1/40 89/1/40
f 43/1/41 42/1/41 88/1/41
f 53/1/42 52/1/42 87/1/42
f 54/1/43 53/1/43 86/1/43
f 64/1/44 63/1/44 85/1/44
f 65/1/45 64/1/45 84/1/45
f 44/1/46 43/1/46 83/1/46
f 45/1/47 44/1/47 82/1/47
f 55/1/48 54/1/48 81/1/48
f 56/1/49 55/1/49 80/1/49
f 66/1/50 65/1/50 79/1/50
f 67/1/51 66/1/51 78/1/51
f 36/1/52 67/1/52 99/1/52
f 46/1/53 45/1/53 77/1/53
f 47/1/54 46/1/54 76/1/54
f 57/1/55 56/1/55 75/1/55
f 58/1/56 57/1/56 74/1/56
f 48/1/57 47/1/57 73/1/57
f 49/1/58 48/1/58 72/1/58
f 50/1/59 49/1/59 98/1/59
f 37/1/60 36/1/60 71/1/60
f 38/1/61 37/1/61 70/1/61
f 39/1/62 38/1/62 97/1/62
f 59/1/63 58/1/63 69/1/63
f 60/1/64 59/1/64 68/1/64
f 61/1/65 60/1/65 96/1/65
f 23/1/33 57/1/33 58/1/33
f 12/1/33 46/1/33 47/1/33
f 33/1/33 67/1/33 36/1/33
f 22/1/33 56/1/33 57/1/33
f 11/1/33 45/1/33 46/1/33
f 32/1/33 66/1/33 67/1/33
f 21/1/33 55/1/33 56/1/33
f 10/1/33 44/1/33 45/1/33
f 31/1/33 65/1/33 66/1/33
f 20/1/33 54/1/33 55/1/33
f 9/1/33 43/1/33 44/1/33
f 30/1/33 64/1/33 65/1/33
f 19/1/33 53/1/33 54/1/33
f 8/1/33 42/1/33 43/1/33
f 29/1/33 63/1/33 64/1/33
f 18/1/33 52/1/33 53/1/33
f 2/1/33 36/1/33 37/1/33
f 7/1/33 41/1/33 42/1/33
f 28/1/33 62/1/33 63/1/33
f 6/1/33 40/1/33 41/1/33
f 17/1/33 51/1/33 52/1/33
f 27/1/33 61/1/33 62/1/33
f 5/1/33 39/1/33 40/1/33
f 16/1/33 50/1/33 51/1/33
f 26/1/33 60/1/33 61/1/33
f 4/1/33 38/1/33 39/1/33
f 15/1/33 49/1/33 50/1/33
f 25/1/33 59/1/33 60/1/33
f 3/1/33 37/1/33 38/1/33
f 14/1/33 48/1/33 49/1/33
f 24/1/33 58/1/33 59/1/33
f 13/1/33 47/1/33 48/1/33
f 86/3/33 87/5/33 80/4/33
f 87/5/66 94/6/66 80/4/66
f 94/6/33 95/7/33 80/4/33
f 95/7/33 98/8/33 80/4/33
f 98/8/33 72/9/33 80/4/33
f 72/9/33 73/10/33 80/4/33
f 73/10/33 76/11/33 80/4/33
f 76/11/33 77/12/33 80/4/33
f 77/12/67 82/13/67 80/4/67
f 82/13/33 83/14/33 80/4/33
f 83/14/68 88/15/68 80/4/68
f 84/16/33 78/17/33 79/18/33
f 85/19/66 78/17/66 84/16/66
f 91/20/33 85/19/33 90/21/33
f 91/20/33 78/17/33 85/19/33
f 68/22/33 91/20/33 96/23/33
f 68/22/33 78/17/33 91/20/33
f 88/15/67 89/24/67 80/4/67
f 80/4/33 89/24/33 75/25/33
f 89/24/33 92/26/33 75/25/33
f 92/26/68 93/27/68 75/25/68
f 93/27/33 97/28/33 75/25/33
f 75/25/33 97/28/33 74/29/33
f 69/30/33 78/17/33 68/22/33
f 74/29/33 97/28/33 69/30/33
f 97/28/33 70/31/33 69/30/33
f 70/31/68 71/32/68 69/30/68
f 71/32/33 99/33/33 69/30/33
f 99/33/33 78/17/33 69/30/33
f 50/1/34 98/1/34 95/1/34
f 51/1/69 95/1/69 94/1/69
f 39/1/36 97/1/36 93/1/36
f 40/1/70 93/1/70 92/1/70
f 61/1/38 96/1/38 91/1/38
f 62/1/39 91/1/39 90/1/39
f 41/1/71 92/1/71 89/1/71
f 42/1/41 89/1/41 88/1/41
f 52/1/72 94/1/72 87/1/72
f 53/1/73 87/1/73 86/1/73
f 63/1/74 90/1/74 85/1/74
f 64/1/45 85/1/45 84/1/45
f 43/1/46 88/1/46 83/1/46
f 44/1/47 83/1/47 82/1/47
f 54/1/48 86/1/48 81/1/48
f 55/1/49 81/1/49 80/1/49
f 65/1/75 84/1/75 79/1/75
f 66/1/51 79/1/51 78/1/51
f 67/1/52 78/1/52 99/1/52
f 45/1/53 82/1/53 77/1/53
f 46/1/76 77/1/76 76/1/76
f 56/1/55 80/1/55 75/1/55
f 57/1/56 75/1/56 74/1/56
f 47/1/57 76/1/57 73/1/57
f 48/1/58 73/1/58 72/1/58
f 49/1/59 72/1/59 98/1/59
f 36/1/77 99/1/77 71/1/77
f 37/1/61 71/1/61 70/1/61
f 38/1/78 70/1/78 97/1/78
f 58/1/63 74/1/63 69/1/63
f 59/1/64 69/1/64 68/1/64
f 60/1/65 68/1/65 96/1/65
