# Blender v2.69 (sub 0) OBJ File: 'arrow.blend'
# www.blender.org
v 0.000000 1.000000 0.000000
v 0.000000 0.000000 -1.000000
v -0.195090 0.000000 -0.980785
v -0.382683 0.000000 -0.923880
v -0.555570 0.000000 -0.831470
v -0.707107 0.000000 -0.707107
v -0.831470 0.000000 -0.555570
v -0.923880 0.000000 -0.382683
v -0.980785 0.000000 -0.195090
v -1.000000 0.000000 -0.000000
v -0.980785 0.000000 0.195090
v -0.923880 0.000000 0.382683
v -0.831470 0.000000 0.555570
v -0.707107 0.000000 0.707107
v -0.555570 0.000000 0.831470
v -0.382683 0.000000 0.923880
v -0.195090 0.000000 0.980785
v 0.000000 0.000000 1.000000
v 0.195091 0.000000 0.980785
v 0.382684 0.000000 0.923879
v 0.555571 0.000000 0.831469
v 0.707107 0.000000 0.707106
v 0.831470 0.000000 0.555570
v 0.923880 0.000000 0.382683
v 0.980785 0.000000 0.195089
v 1.000000 0.000000 -0.000001
v 0.980785 0.000000 -0.195091
v 0.923879 0.000000 -0.382684
v 0.831469 0.000000 -0.555571
v 0.707106 0.000000 -0.707108
v 0.555569 0.000000 -0.831470
v 0.382682 0.000000 -0.923880
v 0.195089 0.000000 -0.980786
v 0.000000 0.000000 0.000000
v 0.000000 0.000000 0.000000
v -0.000000 0.000000 -0.578860
v -0.112930 0.000000 -0.567737
v -0.221520 0.000000 -0.534796
v -0.321597 0.000000 -0.481304
v -0.409315 0.000000 -0.409316
v -0.481304 0.000000 -0.321597
v -0.534796 0.000000 -0.221520
v -0.567737 0.000000 -0.112930
v -0.578859 0.000000 -0.000000
v -0.567737 0.000000 0.112930
v -0.534796 0.000000 0.221520
v -0.481304 0.000000 0.321597
v -0.409315 0.000000 0.409315
v -0.321597 0.000000 0.481304
v -0.221520 0.000000 0.534796
v -0.112930 0.000000 0.567737
v 0.000000 0.000000 0.578859
v 0.112930 0.000000 0.567737
v 0.221520 0.000000 0.534796
v 0.321597 0.000000 0.481304
v 0.409316 0.000000 0.409315
v 0.481304 0.000000 0.321597
v 0.534796 0.000000 0.221519
v 0.567737 0.000000 0.112929
v 0.578859 0.000000 -0.000001
v 0.567737 0.000000 -0.112931
v 0.534796 0.000000 -0.221521
v 0.481304 0.000000 -0.321598
v 0.409315 0.000000 -0.409316
v 0.321596 0.000000 -0.481305
v 0.221519 0.000000 -0.534797
v 0.112929 0.000000 -0.567737
v 0.578859 -1.000000 -0.000001
v 0.567737 -1.000000 0.112929
v -0.221520 -1.000000 -0.534796
v -0.112930 -1.000000 -0.567737
v -0.321597 -1.000000 0.481304
v -0.409315 -1.000000 0.409315
v 0.534796 -1.000000 0.221519
v 0.481304 -1.000000 0.321597
v -0.481304 -1.000000 0.321597
v -0.534796 -1.000000 0.221520
v 0.112929 -1.000000 -0.567737
v 0.221519 -1.000000 -0.534797
v 0.409316 -1.000000 0.409315
v 0.321597 -1.000000 0.481304
v -0.567737 -1.000000 0.112930
v -0.578859 -1.000000 -0.000000
v 0.321596 -1.000000 -0.481305
v 0.409315 -1.000000 -0.409316
v 0.221520 -1.000000 0.534796
v 0.112930 -1.000000 0.567737
v -0.567737 -1.000000 -0.112930
v -0.534796 -1.000000 -0.221520
v 0.481304 -1.000000 -0.321598
v 0.534796 -1.000000 -0.221521
v -0.481304 -1.000000 -0.321597
v -0.409315 -1.000000 -0.409316
v 0.000000 -1.000000 0.578859
v -0.112930 -1.000000 0.567737
v 0.567737 -1.000000 -0.112931
v -0.321597 -1.000000 -0.481304
v -0.221520 -1.000000 0.534796
v -0.000000 -1.000000 -0.578860
vt 0.000000 0.000000
vt 0.549236 0.999900
vt 0.450764 0.999900
vt 0.645815 0.980689
vt 0.354184 0.980689
vt 0.263208 0.943005
vt 0.181332 0.888297
vt 0.111702 0.818667
vt 0.056994 0.736790
vt 0.019311 0.645815
vt 0.000100 0.549235
vt 0.000100 0.450763
vt 0.019310 0.354184
vt 0.056994 0.263208
vt 0.111702 0.181332
vt 0.943005 0.263208
vt 0.818666 0.111702
vt 0.888296 0.181332
vt 0.980688 0.354184
vt 0.999899 0.549236
vt 0.999899 0.450764
vt 0.943005 0.736791
vt 0.980689 0.645815
vt 0.181332 0.111702
vt 0.736791 0.943006
vt 0.263209 0.056994
vt 0.354185 0.019311
vt 0.450764 0.000100
vt 0.818667 0.888298
vt 0.888297 0.818668
vt 0.549235 0.000100
vt 0.645815 0.019311
vt 0.736791 0.056994
vn 0.000000 1.000000 0.000000
vn 0.000000 -0.363689 -0.931516
vn -0.181707 -0.363689 -0.913602
vn -0.356456 -0.363689 -0.860591
vn -0.517502 -0.363689 -0.774499
vn -0.658681 -0.363689 -0.658681
vn -0.774499 -0.363689 -0.517502
vn -0.860591 -0.363689 -0.356456
vn -0.913602 -0.363689 -0.181707
vn -0.931516 -0.363689 0.000000
vn -0.913602 -0.363689 0.181707
vn -0.860591 -0.363689 0.356456
vn -0.774499 -0.363689 0.517502
vn -0.658681 -0.363689 0.658681
vn -0.517502 -0.363689 0.774499
vn -0.356456 -0.363689 0.860591
vn -0.181707 -0.363689 0.913602
vn 0.000000 -0.363689 0.931516
vn 0.181707 -0.363689 0.913602
vn 0.356456 -0.363689 0.860591
vn 0.517502 -0.363689 0.774499
vn 0.658681 -0.363689 0.658681
vn 0.774499 -0.363689 0.517502
vn 0.860591 -0.363689 0.356456
vn 0.913602 -0.363689 0.181707
vn 0.931516 -0.363689 0.000000
vn 0.913602 -0.363689 -0.181707
vn 0.860591 -0.363689 -0.356456
vn 0.774499 -0.363689 -0.517502
vn 0.658681 -0.363689 -0.658681
vn 0.517502 -0.363689 -0.774499
vn 0.356456 -0.363689 -0.860591
vn 0.181707 -0.363689 -0.913602
vn 0.631550 -0.729820 0.261605
vn -0.568377 -0.729820 0.379772
vn 0.000000 -0.729820 -0.683584
vn 0.568377 -0.729820 0.379772
vn -0.631550 -0.729820 0.261605
vn 0.133335 -0.729820 -0.670461
vn 0.483383 -0.729820 0.483383
vn -0.670461 -0.729820 0.133335
vn 0.261574 -0.729820 -0.631550
vn 0.379772 -0.729820 0.568377
vn -0.683584 -0.729820 0.000000
vn 0.379772 -0.729820 -0.568377
vn 0.261605 -0.729820 0.631550
vn -0.670461 -0.729820 -0.133335
vn 0.483383 -0.729820 -0.483383
vn 0.133335 -0.729820 0.670461
vn -0.133335 -0.729820 -0.670461
vn -0.631550 -0.729820 -0.261605
vn 0.568377 -0.729820 -0.379772
vn -0.568377 -0.729820 -0.379772
vn 0.000000 -0.729820 0.683584
vn 0.631550 -0.729820 -0.261605
vn -0.483383 -0.729820 -0.483383
vn -0.133335 -0.729820 0.670461
vn 0.670461 -0.729820 -0.133366
vn -0.379772 -0.729820 -0.568377
vn -0.261605 -0.729820 0.631550
vn 0.683584 -0.729820 0.000000
vn -0.261605 -0.729820 -0.631550
vn -0.379772 -0.729820 0.568377
vn 0.670461 -0.729820 0.133335
vn -0.483383 -0.729820 0.483383
vn 0.404370 -0.685690 0.605213
vn 0.278542 -0.685690 0.672475
vn 0.514695 -0.685690 0.514664
vn -0.142003 -0.685690 0.713889
vn 0.000000 -0.685690 0.727866
vn -0.514664 -0.685690 -0.514664
vn -0.605213 -0.685690 -0.404370
vn 0.672475 -0.685690 -0.278542
vn 0.605213 -0.685690 -0.404370
vn -0.672475 -0.685690 -0.278542
vn -0.713889 -0.685690 -0.142003
vn 0.142003 -0.685690 0.713889
vn 0.514664 -0.685690 -0.514695
vn 0.404370 -0.685690 -0.605213
vn -0.727866 -0.685690 0.000000
vn -0.713889 -0.685690 0.142003
vn 0.278542 -0.685690 -0.672475
vn 0.142003 -0.685690 -0.713889
vn 0.000000 -0.685690 -0.727866
vn -0.672475 -0.685690 0.278542
vn -0.605213 -0.685690 0.404370
vn 0.605213 -0.685690 0.404370
vn 0.672475 -0.685690 0.278542
vn -0.514664 -0.685690 0.514664
vn -0.404370 -0.685690 0.605213
vn -0.278542 -0.685690 0.672475
vn -0.142003 -0.685690 -0.713889
vn -0.278542 -0.685690 -0.672475
vn -0.404370 -0.685690 -0.605213
vn 0.713889 -0.685690 0.142003
vn 0.727866 -0.685690 0.000000
vn 0.713889 -0.685690 -0.142003
s 1
f 1/1/1 2/1/2 3/1/3
f 1/1/1 3/1/3 4/1/4
f 1/1/1 4/1/4 5/1/5
f 1/1/1 5/1/5 6/1/6
f 1/1/1 6/1/6 7/1/7
f 1/1/1 7/1/7 8/1/8
f 1/1/1 8/1/8 9/1/9
f 1/1/1 9/1/9 10/1/10
f 1/1/1 10/1/10 11/1/11
f 1/1/1 11/1/11 12/1/12
f 1/1/1 12/1/12 13/1/13
f 1/1/1 13/1/13 14/1/14
f 1/1/1 14/1/14 15/1/15
f 1/1/1 15/1/15 16/1/16
f 1/1/1 16/1/16 17/1/17
f 1/1/1 17/1/17 18/1/18
f 1/1/1 18/1/18 19/1/19
f 1/1/1 19/1/19 20/1/20
f 1/1/1 20/1/20 21/1/21
f 1/1/1 21/1/21 22/1/22
f 1/1/1 22/1/22 23/1/23
f 1/1/1 23/1/23 24/1/24
f 1/1/1 24/1/24 25/1/25
f 1/1/1 25/1/25 26/1/26
f 1/1/1 26/1/26 27/1/27
f 1/1/1 27/1/27 28/1/28
f 1/1/1 28/1/28 29/1/29
f 1/1/1 29/1/29 30/1/30
f 1/1/1 30/1/30 31/1/31
f 1/1/1 31/1/31 32/1/32
f 1/1/1 32/1/32 33/1/33
f 1/1/1 33/1/33 2/1/2
f 24/1/24 23/1/23 58/1/34
f 13/1/13 12/1/12 47/1/35
f 2/1/2 33/1/33 36/1/36
f 23/1/23 22/1/22 57/1/37
f 12/1/12 11/1/11 46/1/38
f 33/1/33 32/1/32 67/1/39
f 22/1/22 21/1/21 56/1/40
f 11/1/11 10/1/10 45/1/41
f 32/1/32 31/1/31 66/1/42
f 21/1/21 20/1/20 55/1/43
f 10/1/10 9/1/9 44/1/44
f 31/1/31 30/1/30 65/1/45
f 20/1/20 19/1/19 54/1/46
f 9/1/9 8/1/8 43/1/47
f 30/1/30 29/1/29 64/1/48
f 19/1/19 18/1/18 53/1/49
f 3/1/3 2/1/2 37/1/50
f 8/1/8 7/1/7 42/1/51
f 29/1/29 28/1/28 63/1/52
f 7/1/7 6/1/6 41/1/53
f 18/1/18 17/1/17 52/1/54
f 28/1/28 27/1/27 62/1/55
f 6/1/6 5/1/5 40/1/56
f 17/1/17 16/1/16 51/1/57
f 27/1/27 26/1/26 61/1/58
f 5/1/5 4/1/4 39/1/59
f 16/1/16 15/1/15 50/1/60
f 26/1/26 25/1/25 60/1/61
f 4/1/4 3/1/3 38/1/62
f 15/1/15 14/1/14 49/1/63
f 25/1/25 24/1/24 59/1/64
f 14/1/14 13/1/13 48/1/65
f 81/2/66 86/3/67 80/4/68
f 51/1/57 50/1/60 95/1/69
f 52/1/54 51/1/57 94/1/70
f 40/1/56 39/1/59 93/1/71
f 41/1/53 40/1/56 92/1/72
f 62/1/55 61/1/58 91/1/73
f 63/1/52 62/1/55 90/1/74
f 42/1/51 41/1/53 89/1/75
f 43/1/47 42/1/51 88/1/76
f 53/1/49 52/1/54 87/1/77
f 54/1/46 53/1/49 86/1/67
f 64/1/48 63/1/52 85/1/78
f 65/1/45 64/1/48 84/1/79
f 44/1/44 43/1/47 83/1/80
f 45/1/41 44/1/44 82/1/81
f 55/1/43 54/1/46 81/1/66
f 56/1/40 55/1/43 80/1/68
f 66/1/42 65/1/45 79/1/82
f 67/1/39 66/1/42 78/1/83
f 36/1/36 67/1/39 99/1/84
f 46/1/38 45/1/41 77/1/85
f 47/1/35 46/1/38 76/1/86
f 57/1/37 56/1/40 75/1/87
f 58/1/34 57/1/37 74/1/88
f 48/1/65 47/1/35 73/1/89
f 49/1/63 48/1/65 72/1/90
f 50/1/60 49/1/63 98/1/91
f 37/1/50 36/1/36 71/1/92
f 38/1/62 37/1/50 70/1/93
f 39/1/59 38/1/62 97/1/94
f 59/1/64 58/1/34 69/1/95
f 60/1/61 59/1/64 68/1/96
f 61/1/58 60/1/61 96/1/97
f 23/1/23 57/1/37 58/1/34
f 12/1/12 46/1/38 47/1/35
f 33/1/33 67/1/39 36/1/36
f 22/1/22 56/1/40 57/1/37
f 11/1/11 45/1/41 46/1/38
f 32/1/32 66/1/42 67/1/39
f 21/1/21 55/1/43 56/1/40
f 10/1/10 44/1/44 45/1/41
f 31/1/31 65/1/45 66/1/42
f 20/1/20 54/1/46 55/1/43
f 9/1/9 43/1/47 44/1/44
f 30/1/30 64/1/48 65/1/45
f 19/1/19 53/1/49 54/1/46
f 8/1/8 42/1/51 43/1/47
f 29/1/29 63/1/52 64/1/48
f 18/1/18 52/1/54 53/1/49
f 2/1/2 36/1/36 37/1/50
f 7/1/7 41/1/53 42/1/51
f 28/1/28 62/1/55 63/1/52
f 6/1/6 40/1/56 41/1/53
f 17/1/17 51/1/57 52/1/54
f 27/1/27 61/1/58 62/1/55
f 5/1/5 39/1/59 40/1/56
f 16/1/16 50/1/60 51/1/57
f 26/1/26 60/1/61 61/1/58
f 4/1/4 38/1/62 39/1/59
f 15/1/15 49/1/63 50/1/60
f 25/1/25 59/1/64 60/1/61
f 3/1/3 37/1/50 38/1/62
f 14/1/14 48/1/65 49/1/63
f 24/1/24 58/1/34 59/1/64
f 13/1/13 47/1/35 48/1/65
f 86/3/67 87/5/77 80/4/68
f 87/5/77 94/6/70 80/4/68
f 94/6/70 95/7/69 80/4/68
f 95/7/69 98/8/91 80/4/68
f 98/8/91 72/9/90 80/4/68
f 72/9/90 73/10/89 80/4/68
f 73/10/89 76/11/86 80/4/68
f 76/11/86 77/12/85 80/4/68
f 77/12/85 82/13/81 80/4/68
f 82/13/81 83/14/80 80/4/68
f 83/14/80 88/15/76 80/4/68
f 84/16/79 78/17/83 79/18/82
f 85/19/78 78/17/83 84/16/79
f 91/20/73 85/19/78 90/21/74
f 91/20/73 78/17/83 85/19/78
f 68/22/96 91/20/73 96/23/97
f 68/22/96 78/17/83 91/20/73
f 88/15/76 89/24/75 80/4/68
f 80/4/68 89/24/75 75/25/87
f 89/24/75 92/26/72 75/25/87
f 92/26/72 93/27/71 75/25/87
f 93/27/71 97/28/94 75/25/87
f 75/25/87 97/28/94 74/29/88
f 69/30/95 78/17/83 68/22/96
f 74/29/88 97/28/94 69/30/95
f 97/28/94 70/31/93 69/30/95
f 70/31/93 71/32/92 69/30/95
f 71/32/92 99/33/84 69/30/95
f 99/33/84 78/17/83 69/30/95
f 50/1/60 98/1/91 95/1/69
f 51/1/57 95/1/69 94/1/70
f 39/1/59 97/1/94 93/1/71
f 40/1/56 93/1/71 92/1/72
f 61/1/58 96/1/97 91/1/73
f 62/1/55 91/1/73 90/1/74
f 41/1/53 92/1/72 89/1/75
f 42/1/51 89/1/75 88/1/76
f 52/1/54 94/1/70 87/1/77
f 53/1/49 87/1/77 86/1/67
f 63/1/52 90/1/74 85/1/78
f 64/1/48 85/1/78 84/1/79
f 43/1/47 88/1/76 83/1/80
f 44/1/44 83/1/80 82/1/81
f 54/1/46 86/1/67 81/1/66
f 55/1/43 81/1/66 80/1/68
f 65/1/45 84/1/79 79/1/82
f 66/1/42 79/1/82 78/1/83
f 67/1/39 78/1/83 99/1/84
f 45/1/41 82/1/81 77/1/85
f 46/1/38 77/1/85 76/1/86
f 56/1/40 80/1/68 75/1/87
f 57/1/37 75/1/87 74/1/88
f 47/1/35 76/1/86 73/1/89
f 48/1/65 73/1/89 72/1/90
f 49/1/63 72/1/90 98/1/91
f 36/1/36 99/1/84 71/1/92
f 37/1/50 71/1/92 70/1/93
f 38/1/62 70/1/93 97/1/94
f 58/1/34 74/1/88 69/1/95
f 59/1/64 69/1/95 68/1/96
f 60/1/61 68/1/96 96/1/97
