# Blender v2.66 (sub 0) OBJ File: 'cylinder.blend'
# www.blender.org
o Cylinder
v 0.000000 -1.000000 -1.000000
v 0.000000 1.000000 -1.000000
v 0.195090 -1.000000 -0.980785
v 0.195090 1.000000 -0.980785
v 0.382683 -1.000000 -0.923880
v 0.382683 1.000000 -0.923880
v 0.555570 -1.000000 -0.831470
v 0.555570 1.000000 -0.831470
v 0.707107 -1.000000 -0.707107
v 0.707107 1.000000 -0.707107
v 0.831470 -1.000000 -0.555570
v 0.831470 1.000000 -0.555570
v 0.923880 -1.000000 -0.382683
v 0.923880 1.000000 -0.382683
v 0.980785 -1.000000 -0.195090
v 0.980785 1.000000 -0.195090
v 1.000000 -1.000000 -0.000000
v 1.000000 1.000000 -0.000000
v 0.980785 -1.000000 0.195090
v 0.980785 1.000000 0.195090
v 0.923880 -1.000000 0.382683
v 0.923880 1.000000 0.382683
v 0.831470 -1.000000 0.555570
v 0.831470 1.000000 0.555570
v 0.707107 -1.000000 0.707107
v 0.707107 1.000000 0.707107
v 0.555570 -1.000000 0.831470
v 0.555570 1.000000 0.831470
v 0.382683 -1.000000 0.923880
v 0.382683 1.000000 0.923880
v 0.195090 -1.000000 0.980785
v 0.195090 1.000000 0.980785
v -0.000000 -1.000000 1.000000
v -0.000000 1.000000 1.000000
v -0.195091 -1.000000 0.980785
v -0.195091 1.000000 0.980785
v -0.382684 -1.000000 0.923879
v -0.382684 1.000000 0.923879
v -0.555571 -1.000000 0.831469
v -0.555571 1.000000 0.831469
v -0.707107 -1.000000 0.707106
v -0.707107 1.000000 0.707106
v -0.831470 -1.000000 0.555570
v -0.831470 1.000000 0.555570
v -0.923880 -1.000000 0.382683
v -0.923880 1.000000 0.382683
v -0.980785 -1.000000 0.195089
v -0.980785 1.000000 0.195089
v -1.000000 -1.000000 -0.000001
v -1.000000 1.000000 -0.000001
v -0.980785 -1.000000 -0.195091
v -0.980785 1.000000 -0.195091
v -0.923879 -1.000000 -0.382684
v -0.923879 1.000000 -0.382684
v -0.831469 -1.000000 -0.555571
v -0.831469 1.000000 -0.555571
v -0.707106 -1.000000 -0.707108
v -0.707106 1.000000 -0.707108
v -0.555569 -1.000000 -0.831470
v -0.555569 1.000000 -0.831470
v -0.382682 -1.000000 -0.923880
v -0.382682 1.000000 -0.923880
v -0.195089 -1.000000 -0.980786
v -0.195089 1.000000 -0.980786
vt 0.289718 0.879351
vt 0.288367 0.438844
vt 0.330714 0.438714
vt 0.332066 0.879221
vt 0.370605 0.438592
vt 0.371956 0.879099
vt 0.406505 0.438482
vt 0.407857 0.878988
vt 0.437036 0.438388
vt 0.778904 0.000000
vt 0.780256 0.440507
vt 0.749725 0.440601
vt 0.748373 0.000094
vt 0.713824 0.440711
vt 0.712473 0.000204
vt 0.673934 0.440833
vt 0.672582 0.000326
vt 0.631586 0.440963
vt 0.630235 0.000456
vt 0.588409 0.441095
vt 0.587057 0.000588
vt 0.546061 0.441225
vt 0.544710 0.000718
vt 0.506171 0.441348
vt 0.504819 0.000841
vt 0.470270 0.441458
vt 0.468919 0.000951
vt 0.439739 0.441552
vt 0.720545 0.882916
vt 0.719194 0.442409
vt 0.755094 0.442299
vt 0.756446 0.882806
vt 0.794985 0.442176
vt 0.796336 0.882683
vt 0.837333 0.442046
vt 0.838684 0.882553
vt 0.881861 0.882421
vt 0.880510 0.441914
vt 0.924209 0.882291
vt 0.922857 0.441784
vt 0.964099 0.882168
vt 0.962748 0.441662
vt 1.000000 0.882058
vt 0.717842 0.441552
vt 0.719194 0.882058
vt 0.681942 0.441662
vt 0.683293 0.882169
vt 0.642051 0.441784
vt 0.643403 0.882291
vt 0.599704 0.441914
vt 0.601055 0.882421
vt 0.556526 0.442046
vt 0.557878 0.882553
vt 0.514179 0.442176
vt 0.515530 0.882683
vt 0.474288 0.442299
vt 0.475640 0.882806
vt 0.438388 0.442409
vt 0.097872 0.879939
vt 0.096520 0.439433
vt 0.128403 0.879846
vt 0.127051 0.439339
vt 0.164303 0.879735
vt 0.162952 0.439229
vt 0.204194 0.879613
vt 0.000000 0.197605
vt 0.008423 0.155257
vt 0.000000 0.240783
vt 0.246541 0.879483
vt 0.245190 0.438976
vt 0.202842 0.439106
vt 0.438388 0.878895
vt 0.438388 0.001045
vt 0.998649 0.441552
vt 0.439739 0.882916
vt 0.024947 0.115367
vt 0.048935 0.079466
vt 0.079466 0.048935
vt 0.115366 0.024947
vt 0.155257 0.008424
vt 0.197605 0.000000
vt 0.240782 0.000000
vt 0.283130 0.008423
vt 0.323021 0.024947
vt 0.358922 0.048935
vt 0.389453 0.079466
vt 0.413441 0.115367
vt 0.429964 0.155257
vt 0.438388 0.197605
vt 0.438388 0.240783
vt 0.429964 0.283130
vt 0.413441 0.323021
vt 0.389453 0.358922
vt 0.358922 0.389453
vt 0.323021 0.413441
vt 0.283130 0.429964
vt 0.240783 0.438388
vt 0.197605 0.438388
vt 0.155257 0.429964
vt 0.115367 0.413441
vt 0.079466 0.389453
vt 0.048935 0.358922
vt 0.024947 0.323021
vt 0.008423 0.283130
vn 0.000000 0.000000 -1.000000
vn 0.000000 0.685690 -0.727866
vn 0.142003 0.685690 -0.713889
vn 0.195074 0.000000 -0.980773
vn 0.278542 0.685690 -0.672475
vn 0.382672 0.000000 -0.923856
vn 0.404370 0.685690 -0.605213
vn 0.555559 0.000000 -0.831446
vn 0.514664 0.685690 -0.514664
vn 0.707083 0.000000 -0.707083
vn 0.605213 0.685690 -0.404370
vn 0.831446 0.000000 -0.555559
vn 0.672475 0.685690 -0.278542
vn 0.923856 0.000000 -0.382672
vn 0.713889 0.685690 -0.142003
vn 0.980773 0.000000 -0.195074
vn 0.727866 0.685690 0.000000
vn 1.000000 0.000000 0.000000
vn 0.713889 0.685690 0.142003
vn 0.980773 0.000000 0.195074
vn 0.672475 0.685690 0.278542
vn 0.923856 0.000000 0.382672
vn 0.605213 0.685690 0.404370
vn 0.831446 0.000000 0.555559
vn 0.514664 0.685690 0.514664
vn 0.707083 0.000000 0.707083
vn 0.404370 0.685690 0.605213
vn 0.555559 0.000000 0.831446
vn 0.278542 0.685690 0.672475
vn 0.382672 0.000000 0.923856
vn 0.142003 0.685690 0.713889
vn 0.195074 0.000000 0.980773
vn 0.000000 0.685690 0.727866
vn 0.000000 0.000000 0.999969
vn -0.195074 0.000000 0.980773
vn -0.142003 0.685690 0.713889
vn -0.382672 0.000000 0.923856
vn -0.278542 0.685690 0.672475
vn -0.555559 0.000000 0.831446
vn -0.404370 0.685690 0.605213
vn -0.707083 0.000000 0.707083
vn -0.514664 0.685690 0.514664
vn -0.831446 0.000000 0.555559
vn -0.605213 0.685690 0.404370
vn -0.923856 0.000000 0.382672
vn -0.672475 0.685690 0.278542
vn -0.980773 0.000000 0.195074
vn -0.713889 0.685690 0.142003
vn -1.000000 0.000000 0.000000
vn -0.727866 0.685690 0.000000
vn -0.980773 0.000000 -0.195074
vn -0.713889 0.685690 -0.142003
vn -0.923856 0.000000 -0.382672
vn -0.672475 0.685690 -0.278542
vn -0.831446 0.000000 -0.555559
vn -0.605213 0.685690 -0.404370
vn -0.707083 0.000000 -0.707083
vn -0.514664 0.685690 -0.514695
vn -0.555559 0.000000 -0.831446
vn -0.404370 0.685690 -0.605213
vn -0.382672 0.000000 -0.923856
vn -0.195074 0.000000 -0.980773
vn -0.142003 0.685690 -0.713889
vn -0.278542 0.685690 -0.672475
s 1
f 1/1/1 2/2/2 4/3/3
f 3/4/4 4/3/3 6/5/5
f 5/6/6 6/5/5 8/7/7
f 7/8/8 8/7/7 10/9/9
f 9/10/10 10/11/9 12/12/11
f 11/13/12 12/12/11 14/14/13
f 13/15/14 14/14/13 16/16/15
f 15/17/16 16/16/15 18/18/17
f 17/19/18 18/18/17 20/20/19
f 19/21/20 20/20/19 22/22/21
f 21/23/22 22/22/21 24/24/23
f 23/25/24 24/24/23 26/26/25
f 25/27/26 26/26/25 28/28/27
f 27/29/28 28/30/27 30/31/29
f 29/32/30 30/31/29 32/33/31
f 31/34/32 32/33/31 34/35/33
f 33/36/34 34/35/33 35/37/35
f 35/37/35 36/38/36 37/39/37
f 37/39/37 38/40/38 39/41/39
f 39/41/39 40/42/40 41/43/41
f 41/44/41 42/45/42 43/46/43
f 43/46/43 44/47/44 45/48/45
f 45/48/45 46/49/46 47/50/47
f 47/50/47 48/51/48 49/52/49
f 49/52/49 50/53/50 51/54/51
f 51/54/51 52/55/52 53/56/53
f 53/56/53 54/57/54 55/58/55
f 55/59/55 56/60/56 57/61/57
f 57/61/57 58/62/58 59/63/59
f 59/63/59 60/64/60 61/65/61
f 4/66/3 2/67/2 6/68/5
f 63/69/62 64/70/63 1/1/1
f 61/65/61 62/71/64 63/69/62
f 3/4/4 1/1/1 4/3/3
f 5/6/6 3/4/4 6/5/5
f 7/8/8 5/6/6 8/7/7
f 9/72/10 7/8/8 10/9/9
f 11/13/12 9/10/10 12/12/11
f 13/15/14 11/13/12 14/14/13
f 15/17/16 13/15/14 16/16/15
f 17/19/18 15/17/16 18/18/17
f 19/21/20 17/19/18 20/20/19
f 21/23/22 19/21/20 22/22/21
f 23/25/24 21/23/22 24/24/23
f 25/27/26 23/25/24 26/26/25
f 27/73/28 25/27/26 28/28/27
f 29/32/30 27/29/28 30/31/29
f 31/34/32 29/32/30 32/33/31
f 33/36/34 31/34/32 34/35/33
f 34/35/33 36/38/36 35/37/35
f 36/38/36 38/40/38 37/39/37
f 38/40/38 40/42/40 39/41/39
f 40/42/40 42/74/42 41/43/41
f 42/45/42 44/47/44 43/46/43
f 44/47/44 46/49/46 45/48/45
f 46/49/46 48/51/48 47/50/47
f 48/51/48 50/53/50 49/52/49
f 50/53/50 52/55/52 51/54/51
f 52/55/52 54/57/54 53/56/53
f 54/57/54 56/75/56 55/58/55
f 56/60/56 58/62/58 57/61/57
f 58/62/58 60/64/60 59/63/59
f 60/64/60 62/71/64 61/65/61
f 2/67/2 64/76/63 6/68/5
f 64/76/63 62/77/64 6/68/5
f 62/77/64 60/78/60 6/68/5
f 60/78/60 58/79/58 6/68/5
f 58/79/58 56/80/56 6/68/5
f 56/80/56 54/81/54 6/68/5
f 54/81/54 52/82/52 6/68/5
f 52/82/52 50/83/50 6/68/5
f 50/83/50 48/84/48 6/68/5
f 48/84/48 46/85/46 6/68/5
f 46/85/46 44/86/44 6/68/5
f 44/86/44 42/87/42 6/68/5
f 42/87/42 40/88/40 6/68/5
f 40/88/40 38/89/38 6/68/5
f 38/89/38 36/90/36 6/68/5
f 36/90/36 34/91/33 6/68/5
f 34/91/33 32/92/31 6/68/5
f 32/92/31 30/93/29 6/68/5
f 30/93/29 28/94/27 6/68/5
f 28/94/27 26/95/25 6/68/5
f 26/95/25 24/96/23 6/68/5
f 24/96/23 22/97/21 6/68/5
f 22/97/21 20/98/19 6/68/5
f 20/98/19 18/99/17 6/68/5
f 18/99/17 16/100/15 6/68/5
f 16/100/15 14/101/13 6/68/5
f 14/101/13 12/102/11 6/68/5
f 12/102/11 10/103/9 8/104/7
f 6/68/5 12/102/11 8/104/7
f 64/70/63 2/2/2 1/1/1
f 62/71/64 64/70/63 63/69/62
